<svg xmlns="http://www.w3.org/2000/svg" xmlns:xlink="http://www.w3.org/1999/xlink" width="1080" zoomAndPan="magnify" viewBox="0 0 810 809.999993" height="1080" preserveAspectRatio="xMidYMid meet" version="1.0"><path fill="#2e687a" d="M 15.519531 740.5 C 10.859375 742.339844 5.425781 740.542969 2.84375 736.074219 C 0.0078125 731.15625 1.695312 724.863281 6.609375 722.023438 C 9.429688 720.398438 12.703125 720.257812 15.519531 721.363281 L 74.082031 619.929688 C 73.480469 619.398438 72.953125 618.761719 72.527344 618.027344 C 70.421875 614.378906 71.671875 609.707031 75.324219 607.597656 C 78.972656 605.492188 83.644531 606.742188 85.753906 610.394531 C 86.175781 611.125 86.464844 611.902344 86.625 612.6875 L 209.539062 612.6875 C 209.890625 611.671875 210.59375 610.773438 211.597656 610.195312 C 212.601562 609.613281 213.734375 609.453125 214.789062 609.65625 L 276.355469 503.023438 C 275.785156 502.511719 275.28125 501.902344 274.878906 501.203125 C 272.828125 497.652344 274.046875 493.109375 277.59375 491.058594 C 281.144531 489.011719 285.6875 490.230469 287.734375 493.777344 C 288.140625 494.476562 288.417969 495.21875 288.574219 495.96875 L 408.847656 495.96875 C 409.125 493.902344 410.320312 491.984375 412.257812 490.863281 C 414.199219 489.742188 416.460938 489.667969 418.386719 490.460938 L 476.273438 390.199219 C 475.058594 389.277344 474.007812 388.101562 473.199219 386.699219 C 469.925781 381.03125 471.871094 373.769531 477.542969 370.492188 C 481.105469 368.4375 485.296875 368.441406 488.734375 370.136719 L 548.246094 267.058594 C 547.921875 266.777344 547.636719 266.4375 547.410156 266.042969 C 546.308594 264.136719 546.960938 261.695312 548.867188 260.59375 C 550.773438 259.492188 553.214844 260.148438 554.316406 262.054688 C 554.542969 262.449219 554.695312 262.863281 554.777344 263.285156 L 678.042969 263.285156 C 678.28125 260.925781 679.613281 258.710938 681.824219 257.4375 C 685.472656 255.328125 690.144531 256.582031 692.25 260.230469 C 692.675781 260.964844 692.964844 261.738281 693.125 262.527344 L 810 262.527344 L 810 265.570312 L 693.121094 265.570312 C 692.746094 267.402344 691.703125 269.09375 690.097656 270.246094 L 747.4375 369.5625 C 753.3125 366.625 760.546875 368.742188 763.875 374.507812 C 767.328125 380.492188 765.277344 388.15625 759.289062 391.613281 C 755.515625 393.792969 751.070312 393.78125 747.4375 391.972656 L 689.992188 491.472656 C 690.816406 492.066406 691.527344 492.84375 692.070312 493.777344 C 692.472656 494.476562 692.75 495.21875 692.90625 495.96875 L 810 495.96875 L 810 499.011719 L 692.90625 499.011719 C 692.484375 501.003906 691.253906 502.820312 689.351562 503.917969 C 687.449219 505.015625 685.261719 505.175781 683.324219 504.542969 L 621.757812 611.175781 C 621.949219 611.394531 622.117188 611.632812 622.269531 611.890625 C 623.28125 613.648438 623.015625 615.792969 621.761719 617.246094 L 681.433594 720.605469 C 684.4375 719.378906 687.753906 719.558594 690.542969 720.921875 L 750.414062 617.222656 C 750.085938 616.9375 749.800781 616.597656 749.574219 616.203125 C 748.472656 614.296875 749.128906 611.855469 751.035156 610.757812 C 752.941406 609.65625 755.382812 610.308594 756.484375 612.214844 C 756.710938 612.609375 756.863281 613.027344 756.945312 613.449219 L 810 613.449219 L 810 614.972656 L 756.941406 614.972656 C 756.730469 616.066406 756.0625 617.0625 755.023438 617.664062 C 753.984375 618.265625 752.785156 618.34375 751.730469 617.980469 L 691.859375 721.679688 C 693.230469 722.597656 694.414062 723.835938 695.292969 725.359375 C 696.039062 726.644531 696.496094 728.019531 696.683594 729.410156 L 810 729.410156 L 810 732.453125 L 696.679688 732.453125 C 696.257812 735.507812 694.578125 738.359375 691.859375 740.183594 L 732.078125 809.839844 L 730.320312 809.839844 L 690.542969 740.945312 C 687.605469 742.386719 684.292969 742.414062 681.4375 741.253906 L 641.839844 809.839844 L 638.324219 809.839844 L 678.800781 739.734375 C 677.691406 738.875 676.730469 737.792969 675.984375 736.503906 C 673.167969 731.625 674.464844 725.488281 678.800781 722.128906 L 619.125 618.765625 C 617.238281 619.128906 615.246094 618.285156 614.234375 616.53125 C 614.085938 616.269531 613.964844 616.003906 613.867188 615.730469 L 490.953125 615.730469 C 490.578125 617.566406 489.535156 619.257812 487.929688 620.410156 L 545.269531 719.726562 C 551.148438 716.789062 558.378906 718.90625 561.707031 724.671875 C 565.164062 730.65625 563.109375 738.320312 557.125 741.777344 C 553.347656 743.957031 548.90625 743.945312 545.273438 742.136719 L 506.183594 809.839844 L 504.425781 809.839844 L 543.953125 741.378906 C 542.382812 740.339844 541.019531 738.933594 540.015625 737.191406 C 536.6875 731.429688 538.472656 724.105469 543.953125 720.488281 L 486.613281 621.171875 C 484.8125 621.984375 482.828125 622.042969 481.050781 621.449219 L 422.488281 722.882812 C 423.472656 723.664062 424.324219 724.636719 424.992188 725.789062 C 427.570312 730.257812 426.410156 735.863281 422.488281 738.980469 L 463.398438 809.839844 L 459.886719 809.839844 L 419.851562 740.5 C 415.191406 742.339844 409.757812 740.542969 407.179688 736.074219 C 406.511719 734.921875 406.097656 733.695312 405.910156 732.453125 L 292.347656 732.453125 C 291.925781 735.507812 290.242188 738.359375 287.527344 740.183594 L 327.742188 809.839844 L 325.988281 809.839844 L 286.210938 740.945312 C 283.269531 742.386719 279.960938 742.414062 277.101562 741.253906 L 237.503906 809.839844 L 233.992188 809.839844 L 274.46875 739.734375 C 273.359375 738.875 272.394531 737.792969 271.652344 736.503906 C 268.835938 731.625 270.132812 725.488281 274.46875 722.128906 L 214.792969 618.765625 C 212.90625 619.128906 210.914062 618.285156 209.902344 616.53125 C 209.75 616.269531 209.628906 616.003906 209.535156 615.730469 L 86.621094 615.730469 C 86.199219 617.800781 84.925781 619.683594 82.957031 620.824219 C 80.988281 621.960938 78.71875 622.117188 76.71875 621.449219 L 18.15625 722.882812 C 19.136719 723.664062 19.992188 724.636719 20.65625 725.789062 C 23.238281 730.257812 22.078125 735.863281 18.15625 738.980469 L 59.066406 809.839844 L 55.554688 809.839844 Z M 278.992188 504.542969 L 217.425781 611.175781 C 217.613281 611.394531 217.785156 611.632812 217.933594 611.890625 C 218.949219 613.648438 218.683594 615.792969 217.425781 617.246094 L 277.101562 720.605469 C 280.105469 719.378906 283.417969 719.558594 286.207031 720.921875 L 346.078125 617.222656 C 345.753906 616.9375 345.46875 616.597656 345.242188 616.203125 C 344.140625 614.296875 344.796875 611.855469 346.703125 610.757812 C 348.609375 609.65625 351.050781 610.308594 352.148438 612.214844 C 352.378906 612.609375 352.53125 613.027344 352.613281 613.449219 L 475.878906 613.449219 C 476.066406 611.570312 476.949219 609.785156 478.414062 608.492188 L 417.804688 503.507812 C 414.769531 504.460938 411.371094 503.21875 409.71875 500.351562 C 409.46875 499.917969 409.269531 499.46875 409.121094 499.011719 L 288.570312 499.011719 C 288.152344 501.003906 286.921875 502.820312 285.019531 503.917969 C 283.117188 505.015625 280.929688 505.175781 278.992188 504.542969 Z M 478.910156 391.71875 L 420.882812 492.21875 C 421.207031 492.578125 421.496094 492.972656 421.746094 493.40625 C 423.402344 496.273438 422.777344 499.835938 420.4375 501.988281 L 481.050781 606.96875 C 484.421875 605.839844 488.238281 607.195312 490.085938 610.394531 C 490.507812 611.125 490.796875 611.902344 490.957031 612.6875 L 613.871094 612.6875 C 614.222656 611.671875 614.929688 610.773438 615.933594 610.195312 C 616.9375 609.613281 618.066406 609.453125 619.125 609.65625 L 680.6875 503.023438 C 680.117188 502.511719 679.613281 501.902344 679.210938 501.203125 C 678.671875 500.265625 678.355469 499.261719 678.253906 498.25 L 555.296875 498.25 C 555.078125 499.523438 554.316406 500.691406 553.113281 501.386719 C 550.960938 502.628906 548.207031 501.890625 546.964844 499.738281 C 545.851562 497.8125 546.328125 495.402344 547.984375 494.027344 L 488.734375 391.402344 C 485.566406 392.972656 481.984375 392.996094 478.910156 391.71875 Z M 549.5625 267.816406 L 490.050781 370.894531 C 491.527344 371.875 492.804688 373.199219 493.75 374.835938 C 494.558594 376.238281 495.046875 377.734375 495.242188 379.246094 L 610.234375 379.246094 C 610.664062 376.996094 612.03125 374.9375 614.171875 373.703125 C 616.308594 372.464844 618.777344 372.3125 620.941406 373.066406 L 680.582031 269.765625 C 679.980469 269.234375 679.453125 268.597656 679.027344 267.863281 C 678.46875 266.894531 678.144531 265.855469 678.042969 264.808594 L 554.777344 264.808594 C 554.5625 265.902344 553.894531 266.902344 552.855469 267.5 C 551.816406 268.101562 550.617188 268.179688 549.5625 267.816406 Z M 746.121094 370.324219 L 688.78125 271.007812 C 686.980469 271.820312 684.992188 271.878906 683.21875 271.285156 L 623.578125 374.585938 C 624.253906 375.167969 624.847656 375.871094 625.320312 376.6875 C 627.3125 380.140625 626.492188 384.445312 623.578125 386.953125 L 683.324219 490.433594 C 685.109375 489.847656 687.015625 489.976562 688.671875 490.714844 L 746.121094 391.214844 C 744.546875 390.179688 743.1875 388.769531 742.183594 387.03125 C 738.855469 381.265625 740.636719 373.941406 746.121094 370.324219 Z M 419.851562 721.363281 L 478.414062 619.929688 C 477.8125 619.398438 477.285156 618.761719 476.859375 618.027344 C 476.300781 617.058594 475.976562 616.019531 475.875 614.972656 L 352.609375 614.972656 C 352.394531 616.066406 351.726562 617.066406 350.6875 617.664062 C 349.648438 618.265625 348.449219 618.34375 347.394531 617.980469 L 287.523438 721.679688 C 288.894531 722.597656 290.082031 723.835938 290.960938 725.359375 C 291.703125 726.644531 292.160156 728.023438 292.351562 729.410156 L 405.914062 729.410156 C 406.363281 726.421875 408.121094 723.652344 410.941406 722.027344 C 413.761719 720.398438 417.035156 720.257812 419.851562 721.363281 Z M 610.230469 382.289062 L 495.238281 382.289062 C 494.804688 385.59375 492.996094 388.683594 490.050781 390.640625 L 549.300781 493.269531 C 551.320312 492.519531 553.644531 493.3125 554.757812 495.238281 C 555.03125 495.714844 555.210938 496.21875 555.296875 496.730469 L 678.253906 496.730469 C 678.441406 494.925781 679.285156 493.207031 680.6875 491.957031 L 620.941406 388.472656 C 617.3125 389.746094 613.175781 388.300781 611.183594 384.847656 C 610.710938 384.03125 610.398438 383.167969 610.230469 382.289062 Z M 144.199219 726.894531 C 146.425781 725.609375 149.277344 726.375 150.5625 728.601562 C 151.847656 730.828125 151.085938 733.679688 148.859375 734.964844 C 146.628906 736.25 143.777344 735.488281 142.492188 733.261719 C 141.207031 731.035156 141.972656 728.179688 144.199219 726.894531 Z M 144.199219 726.894531 " fill-opacity="1" fill-rule="evenodd"/></svg>