<svg xmlns="http://www.w3.org/2000/svg" xmlns:xlink="http://www.w3.org/1999/xlink" width="1080" zoomAndPan="magnify" viewBox="0 0 810 809.999993" height="1080" preserveAspectRatio="xMidYMid meet" version="1.0"><defs><clipPath id="a29df61663"><path d="M 140.324219 186.460938 L 633.875 186.460938 L 633.875 680.007812 L 140.324219 680.007812 Z M 140.324219 186.460938 " clip-rule="nonzero"/></clipPath><clipPath id="fa9ec0fdd1"><path d="M 387.097656 186.460938 C 250.808594 186.460938 140.324219 296.945312 140.324219 433.234375 C 140.324219 569.523438 250.808594 680.007812 387.097656 680.007812 C 523.390625 680.007812 633.875 569.523438 633.875 433.234375 C 633.875 296.945312 523.390625 186.460938 387.097656 186.460938 Z M 387.097656 186.460938 " clip-rule="nonzero"/></clipPath><clipPath id="c286ead851"><path d="M 269 293 L 503 293 L 503 573 L 269 573 Z M 269 293 " clip-rule="nonzero"/></clipPath><clipPath id="607d377625"><path d="M 280.375 286.515625 L 533.738281 326.5 L 493.753906 579.863281 L 240.390625 539.878906 Z M 280.375 286.515625 " clip-rule="nonzero"/></clipPath><clipPath id="3b8e74b08b"><path d="M 280.375 286.515625 L 533.738281 326.5 L 493.753906 579.863281 L 240.390625 539.878906 Z M 280.375 286.515625 " clip-rule="nonzero"/></clipPath></defs><g clip-path="url(#a29df61663)"><g clip-path="url(#fa9ec0fdd1)"><path fill="#033443" d="M 140.324219 186.460938 L 633.875 186.460938 L 633.875 680.007812 L 140.324219 680.007812 Z M 140.324219 186.460938 " fill-opacity="1" fill-rule="nonzero"/></g></g><g clip-path="url(#c286ead851)"><g clip-path="url(#607d377625)"><g clip-path="url(#3b8e74b08b)"><path fill="#2ef7bf" d="M 501.3125 512.0625 C 502.382812 517.296875 502.625 522.777344 501.910156 528.359375 C 501.867188 528.894531 501.785156 529.421875 501.699219 529.972656 C 497.34375 557.5625 471.429688 576.410156 443.839844 572.054688 C 331.46875 554.324219 254.753906 448.859375 272.488281 336.484375 C 276.839844 308.898438 302.753906 290.046875 330.34375 294.402344 C 330.894531 294.488281 331.421875 294.570312 331.945312 294.695312 C 337.472656 295.734375 342.632812 297.65625 347.285156 300.285156 L 353.226562 384.46875 C 353.222656 384.511719 353.199219 384.527344 353.152344 384.539062 L 316.308594 394.574219 L 316.199219 394.597656 C 324.402344 445.167969 356.429688 489.195312 402.015625 512.574219 L 402.070312 512.476562 L 422.988281 480.496094 L 501.3125 512.0625 " fill-opacity="1" fill-rule="nonzero"/></g></g></g></svg>