<svg xmlns="http://www.w3.org/2000/svg" xmlns:xlink="http://www.w3.org/1999/xlink" width="1080" zoomAndPan="magnify" viewBox="0 0 810 809.999993" height="1080" preserveAspectRatio="xMidYMid meet" version="1.0"><defs><clipPath id="d99d94abd1"><path d="M 158.226562 158.226562 L 651.773438 158.226562 L 651.773438 651.773438 L 158.226562 651.773438 Z M 158.226562 158.226562 " clip-rule="nonzero"/></clipPath><clipPath id="ce3bdf6f78"><path d="M 405 158.226562 C 268.710938 158.226562 158.226562 268.710938 158.226562 405 C 158.226562 541.289062 268.710938 651.773438 405 651.773438 C 541.289062 651.773438 651.773438 541.289062 651.773438 405 C 651.773438 268.710938 541.289062 158.226562 405 158.226562 Z M 405 158.226562 " clip-rule="nonzero"/></clipPath></defs><g clip-path="url(#d99d94abd1)"><g clip-path="url(#ce3bdf6f78)"><path fill="#033443" d="M 158.226562 158.226562 L 651.773438 158.226562 L 651.773438 651.773438 L 158.226562 651.773438 Z M 158.226562 158.226562 " fill-opacity="1" fill-rule="nonzero"/></g></g><path fill="#2ef7bf" d="M 549.613281 523.15625 L 531.0625 468.898438 C 531.992188 467.269531 532.871094 465.617188 533.707031 463.941406 C 534.539062 462.261719 535.328125 460.5625 536.066406 458.84375 C 536.804688 457.121094 537.496094 455.382812 538.140625 453.621094 C 538.78125 451.859375 539.375 450.085938 539.917969 448.292969 C 540.460938 446.496094 540.949219 444.691406 541.394531 442.871094 C 541.835938 441.050781 542.222656 439.21875 542.5625 437.375 C 542.902344 435.53125 543.191406 433.683594 543.425781 431.824219 C 543.660156 429.964844 543.84375 428.101562 543.976562 426.234375 C 544.105469 424.363281 544.183594 422.492188 544.210938 420.621094 C 544.238281 418.746094 544.210938 416.875 544.132812 415.003906 C 544.054688 413.128906 543.925781 411.261719 543.742188 409.398438 C 543.558594 407.53125 543.324219 405.675781 543.035156 403.824219 C 542.75 401.972656 542.410156 400.128906 542.019531 398.296875 C 541.632812 396.464844 541.191406 394.644531 540.699219 392.839844 C 540.207031 391.03125 539.664062 389.238281 539.070312 387.460938 C 538.480469 385.683594 537.839844 383.921875 537.148438 382.183594 C 536.457031 380.441406 535.71875 378.71875 534.929688 377.019531 C 534.144531 375.320312 533.3125 373.640625 532.429688 371.988281 C 531.550781 370.335938 530.621094 368.707031 529.652344 367.105469 C 528.679688 365.503906 527.664062 363.929688 526.601562 362.386719 C 525.542969 360.84375 524.441406 359.328125 523.296875 357.84375 C 522.152344 356.363281 520.964844 354.910156 519.742188 353.496094 C 518.515625 352.078125 517.25 350.695312 515.949219 349.351562 C 514.644531 348.003906 513.304688 346.695312 511.929688 345.425781 C 510.550781 344.152344 509.140625 342.921875 507.695312 341.730469 C 506.25 340.539062 504.773438 339.386719 503.261719 338.277344 C 501.753906 337.167969 500.214844 336.101562 498.644531 335.078125 C 497.074219 334.054688 495.480469 333.078125 493.855469 332.144531 C 492.230469 331.210938 490.582031 330.324219 488.90625 329.480469 C 487.234375 328.640625 485.539062 327.84375 483.820312 327.097656 C 482.101562 326.351562 480.363281 325.652344 478.605469 325.003906 C 476.847656 324.355469 475.074219 323.753906 473.285156 323.203125 C 474.273438 325.378906 475.195312 327.582031 476.046875 329.8125 C 476.902344 332.042969 477.6875 334.300781 478.398438 336.578125 C 479.113281 338.859375 479.757812 341.15625 480.332031 343.476562 C 480.902344 345.796875 481.40625 348.128906 481.832031 350.480469 C 482.261719 352.828125 482.617188 355.191406 482.902344 357.5625 C 483.1875 359.933594 483.394531 362.3125 483.535156 364.695312 C 483.671875 367.082031 483.734375 369.46875 483.722656 371.855469 C 483.714844 374.246094 483.628906 376.632812 483.472656 379.015625 C 483.316406 381.398438 483.085938 383.777344 482.78125 386.144531 C 482.476562 388.515625 482.101562 390.871094 481.652344 393.21875 C 481.203125 395.566406 480.683594 397.894531 480.089844 400.207031 C 479.5 402.523438 478.835938 404.816406 478.101562 407.089844 C 477.367188 409.363281 476.566406 411.613281 475.691406 413.835938 C 474.820312 416.058594 473.882812 418.253906 472.875 420.417969 C 471.867188 422.585938 470.792969 424.71875 469.652344 426.816406 C 468.515625 428.917969 467.3125 430.980469 466.046875 433.007812 C 464.78125 435.03125 463.453125 437.015625 462.066406 438.960938 C 460.675781 440.902344 459.230469 442.804688 457.722656 444.660156 C 456.21875 446.511719 454.65625 448.320312 453.042969 450.078125 C 451.425781 451.835938 449.753906 453.542969 448.035156 455.199219 C 446.3125 456.855469 444.539062 458.457031 442.71875 460.003906 C 440.898438 461.550781 439.035156 463.039062 437.121094 464.46875 C 435.207031 465.902344 433.253906 467.273438 431.257812 468.582031 C 429.261719 469.894531 427.226562 471.144531 425.152344 472.328125 C 423.078125 473.515625 420.96875 474.636719 418.828125 475.691406 C 416.683594 476.746094 414.511719 477.734375 412.308594 478.65625 C 410.105469 479.578125 407.875 480.433594 405.617188 481.21875 C 403.363281 482.003906 401.082031 482.714844 398.785156 483.359375 C 396.484375 484.003906 394.164062 484.578125 391.828125 485.078125 C 389.496094 485.578125 387.144531 486.007812 384.785156 486.367188 C 382.421875 486.722656 380.050781 487.003906 377.671875 487.214844 C 375.292969 487.425781 372.910156 487.5625 370.519531 487.628906 C 372.40625 489.644531 374.371094 491.578125 376.414062 493.433594 C 378.460938 495.285156 380.578125 497.054688 382.769531 498.730469 C 384.960938 500.410156 387.214844 501.996094 389.539062 503.492188 C 391.859375 504.984375 394.238281 506.378906 396.675781 507.675781 C 399.109375 508.972656 401.597656 510.167969 404.132812 511.261719 C 406.667969 512.351562 409.242188 513.339844 411.859375 514.21875 C 414.472656 515.097656 417.121094 515.871094 419.800781 516.53125 C 422.480469 517.191406 425.183594 517.742188 427.910156 518.179688 C 430.636719 518.621094 433.375 518.945312 436.125 519.15625 C 438.878906 519.371094 441.632812 519.46875 444.394531 519.457031 C 447.152344 519.441406 449.910156 519.3125 452.660156 519.070312 C 455.40625 518.832031 458.144531 518.476562 460.863281 518.007812 C 463.585938 517.542969 466.28125 516.964844 468.953125 516.273438 C 471.625 515.585938 474.265625 514.785156 476.871094 513.878906 C 479.480469 512.972656 482.046875 511.957031 484.570312 510.839844 C 487.089844 509.722656 489.566406 508.5 491.988281 507.179688 L 544.859375 527.730469 C 545.519531 527.980469 546.195312 528.035156 546.886719 527.894531 C 547.578125 527.753906 548.175781 527.4375 548.683594 526.949219 C 549.191406 526.460938 549.53125 525.875 549.699219 525.1875 C 549.867188 524.503906 549.835938 523.828125 549.613281 523.15625 Z M 549.613281 523.15625 " fill-opacity="1" fill-rule="nonzero"/><path fill="#2ef7bf" d="M 467.683594 371.273438 C 467.675781 369.351562 467.613281 367.433594 467.496094 365.515625 C 467.378906 363.597656 467.207031 361.6875 466.980469 359.78125 C 466.75 357.875 466.46875 355.972656 466.132812 354.082031 C 465.796875 352.191406 465.40625 350.3125 464.960938 348.445312 C 464.515625 346.578125 464.015625 344.722656 463.464844 342.882812 C 462.914062 341.042969 462.308594 339.222656 461.652344 337.417969 C 460.996094 335.609375 460.289062 333.828125 459.53125 332.0625 C 458.773438 330.296875 457.964844 328.558594 457.105469 326.839844 C 456.246094 325.121094 455.335938 323.429688 454.382812 321.765625 C 453.425781 320.097656 452.421875 318.460938 451.371094 316.855469 C 450.320312 315.246094 449.226562 313.667969 448.082031 312.125 C 446.941406 310.578125 445.757812 309.070312 444.53125 307.59375 C 443.300781 306.117188 442.03125 304.675781 440.722656 303.273438 C 439.410156 301.867188 438.0625 300.503906 436.671875 299.175781 C 435.28125 297.851562 433.855469 296.566406 432.394531 295.320312 C 430.929688 294.078125 429.433594 292.875 427.902344 291.71875 C 426.367188 290.5625 424.804688 289.449219 423.207031 288.378906 C 421.613281 287.3125 419.984375 286.289062 418.332031 285.316406 C 416.675781 284.339844 414.996094 283.414062 413.285156 282.539062 C 411.578125 281.660156 409.847656 280.832031 408.089844 280.054688 C 406.335938 279.273438 404.558594 278.546875 402.761719 277.871094 C 400.960938 277.195312 399.148438 276.570312 397.3125 276 C 395.480469 275.429688 393.632812 274.910156 391.769531 274.445312 C 389.90625 273.980469 388.03125 273.566406 386.140625 273.210938 C 384.253906 272.851562 382.359375 272.550781 380.457031 272.300781 C 378.550781 272.050781 376.640625 271.859375 374.726562 271.71875 C 372.808594 271.582031 370.890625 271.496094 368.972656 271.46875 C 367.050781 271.441406 365.132812 271.46875 363.210938 271.550781 C 361.292969 271.632812 359.378906 271.769531 357.46875 271.960938 C 355.558594 272.152344 353.652344 272.398438 351.757812 272.703125 C 349.859375 273.003906 347.972656 273.359375 346.097656 273.769531 C 344.222656 274.179688 342.359375 274.640625 340.507812 275.160156 C 338.660156 275.675781 336.824219 276.246094 335.007812 276.871094 C 333.191406 277.492188 331.394531 278.167969 329.617188 278.890625 C 327.839844 279.617188 326.082031 280.394531 324.347656 281.222656 C 322.617188 282.046875 320.90625 282.925781 319.222656 283.851562 C 317.542969 284.773438 315.886719 285.746094 314.257812 286.769531 C 312.632812 287.789062 311.035156 288.855469 309.46875 289.96875 C 307.902344 291.078125 306.371094 292.234375 304.871094 293.433594 C 303.371094 294.636719 301.910156 295.878906 300.480469 297.164062 C 299.054688 298.445312 297.664062 299.769531 296.3125 301.136719 C 294.960938 302.5 293.648438 303.902344 292.378906 305.34375 C 291.105469 306.78125 289.878906 308.257812 288.691406 309.765625 C 287.503906 311.277344 286.363281 312.820312 285.265625 314.398438 C 284.167969 315.972656 283.117188 317.578125 282.113281 319.214844 C 281.105469 320.851562 280.148438 322.515625 279.238281 324.207031 C 278.332031 325.898438 277.46875 327.617188 276.660156 329.355469 C 275.847656 331.097656 275.089844 332.859375 274.378906 334.644531 C 273.671875 336.429688 273.011719 338.234375 272.40625 340.058594 C 271.800781 341.878906 271.25 343.71875 270.75 345.574219 C 270.25 347.425781 269.800781 349.292969 269.410156 351.175781 C 269.015625 353.054688 268.679688 354.945312 268.394531 356.84375 C 268.113281 358.742188 267.882812 360.648438 267.707031 362.5625 C 267.535156 364.472656 267.414062 366.390625 267.351562 368.308594 C 267.285156 370.230469 267.277344 372.148438 267.324219 374.070312 C 267.371094 375.988281 267.472656 377.90625 267.628906 379.820312 C 267.785156 381.734375 267.996094 383.640625 268.261719 385.542969 C 268.527344 387.445312 268.847656 389.339844 269.222656 391.222656 C 269.597656 393.105469 270.027344 394.976562 270.511719 396.835938 C 270.992188 398.695312 271.53125 400.539062 272.117188 402.367188 C 272.707031 404.195312 273.347656 406.003906 274.039062 407.796875 C 274.734375 409.585938 275.476562 411.355469 276.273438 413.105469 C 277.066406 414.855469 277.910156 416.578125 278.804688 418.277344 C 279.699219 419.976562 280.640625 421.652344 281.628906 423.296875 L 275.234375 442.050781 L 264.957031 472.210938 C 264.730469 472.882812 264.703125 473.558594 264.871094 474.242188 C 265.039062 474.929688 265.375 475.515625 265.882812 476.003906 C 266.394531 476.492188 266.992188 476.808594 267.683594 476.949219 C 268.375 477.089844 269.050781 477.035156 269.707031 476.785156 L 299.125 465.351562 L 317.339844 458.261719 C 323.597656 461.878906 330.171875 464.78125 337.0625 466.972656 C 343.949219 469.164062 350.992188 470.59375 358.1875 471.261719 C 361.246094 471.519531 364.355469 471.671875 367.488281 471.671875 C 369.128906 471.671875 370.773438 471.632812 372.410156 471.550781 C 374.050781 471.472656 375.6875 471.351562 377.324219 471.191406 C 378.957031 471.027344 380.585938 470.828125 382.210938 470.585938 C 383.832031 470.34375 385.449219 470.0625 387.0625 469.742188 C 388.671875 469.421875 390.273438 469.0625 391.867188 468.664062 C 393.457031 468.261719 395.039062 467.824219 396.609375 467.347656 C 398.183594 466.871094 399.742188 466.355469 401.285156 465.800781 C 402.832031 465.246094 404.363281 464.65625 405.878906 464.027344 C 407.394531 463.398438 408.894531 462.730469 410.378906 462.027344 C 411.863281 461.324219 413.328125 460.585938 414.777344 459.8125 C 416.226562 459.039062 417.652344 458.226562 419.058594 457.382812 C 420.46875 456.535156 421.855469 455.65625 423.21875 454.746094 C 424.582031 453.832031 425.925781 452.886719 427.242188 451.90625 C 428.558594 450.925781 429.851562 449.914062 431.121094 448.875 C 432.390625 447.832031 433.632812 446.757812 434.847656 445.652344 C 436.0625 444.550781 437.25 443.417969 438.410156 442.253906 C 439.570312 441.09375 440.699219 439.902344 441.800781 438.683594 C 442.902344 437.464844 443.972656 436.222656 445.015625 434.953125 C 446.054688 433.679688 447.0625 432.386719 448.039062 431.066406 C 449.015625 429.746094 449.960938 428.402344 450.871094 427.035156 C 451.78125 425.671875 452.65625 424.28125 453.5 422.875 C 454.339844 421.464844 455.148438 420.035156 455.917969 418.585938 C 456.691406 417.136719 457.425781 415.667969 458.128906 414.183594 C 458.828125 412.699219 459.488281 411.195312 460.117188 409.679688 C 460.742188 408.160156 461.332031 406.628906 461.882812 405.082031 C 462.433594 403.535156 462.945312 401.976562 463.417969 400.402344 C 463.890625 398.832031 464.328125 397.25 464.722656 395.65625 C 465.121094 394.0625 465.476562 392.460938 465.792969 390.847656 C 466.109375 389.238281 466.390625 387.621094 466.625 385.996094 C 466.863281 384.371094 467.0625 382.742188 467.21875 381.105469 C 467.378906 379.472656 467.496094 377.835938 467.574219 376.195312 C 467.648438 374.554688 467.6875 372.914062 467.683594 371.273438 Z M 380.078125 394.394531 C 380.078125 394.917969 380.027344 395.4375 379.925781 395.949219 C 379.824219 396.460938 379.671875 396.960938 379.472656 397.441406 C 379.269531 397.925781 379.027344 398.382812 378.734375 398.820312 C 378.445312 399.253906 378.113281 399.65625 377.746094 400.027344 C 377.375 400.394531 376.972656 400.726562 376.539062 401.015625 C 376.101562 401.308594 375.644531 401.550781 375.160156 401.753906 C 374.679688 401.953125 374.179688 402.105469 373.667969 402.207031 C 373.152344 402.308594 372.636719 402.359375 372.113281 402.359375 L 321.375 402.359375 C 320.855469 402.351562 320.34375 402.292969 319.839844 402.183594 C 319.332031 402.074219 318.839844 401.921875 318.363281 401.714844 C 317.890625 401.511719 317.4375 401.265625 317.011719 400.972656 C 316.582031 400.679688 316.1875 400.351562 315.824219 399.980469 C 315.460938 399.613281 315.136719 399.210938 314.851562 398.78125 C 314.566406 398.347656 314.328125 397.890625 314.132812 397.414062 C 313.933594 396.933594 313.789062 396.441406 313.6875 395.933594 C 313.585938 395.425781 313.539062 394.914062 313.539062 394.394531 L 313.539062 393.625 C 313.539062 393.101562 313.589844 392.585938 313.691406 392.070312 C 313.792969 391.558594 313.945312 391.0625 314.144531 390.582031 C 314.34375 390.097656 314.589844 389.640625 314.882812 389.207031 C 315.171875 388.773438 315.503906 388.371094 315.871094 388 C 316.242188 387.632812 316.644531 387.304688 317.078125 387.015625 C 317.515625 386.726562 317.972656 386.480469 318.457031 386.28125 C 318.9375 386.082031 319.4375 385.933594 319.949219 385.832031 C 320.460938 385.734375 320.980469 385.683594 321.503906 385.683594 L 372.113281 385.683594 C 372.636719 385.683594 373.152344 385.734375 373.664062 385.832031 C 374.179688 385.933594 374.675781 386.082031 375.160156 386.28125 C 375.640625 386.480469 376.101562 386.726562 376.535156 387.015625 C 376.972656 387.304688 377.375 387.632812 377.742188 388 C 378.113281 388.371094 378.445312 388.773438 378.734375 389.207031 C 379.023438 389.640625 379.269531 390.097656 379.472656 390.582031 C 379.671875 391.0625 379.820312 391.558594 379.925781 392.070312 C 380.027344 392.585938 380.078125 393.101562 380.078125 393.625 Z M 418.410156 359.378906 C 418.410156 359.902344 418.359375 360.417969 418.253906 360.929688 C 418.152344 361.445312 418.003906 361.941406 417.800781 362.425781 C 417.601562 362.910156 417.355469 363.367188 417.066406 363.800781 C 416.777344 364.238281 416.445312 364.640625 416.074219 365.007812 C 415.707031 365.378906 415.304688 365.710938 414.867188 366 C 414.433594 366.289062 413.976562 366.535156 413.492188 366.734375 C 413.007812 366.9375 412.511719 367.085938 412 367.1875 C 411.484375 367.292969 410.96875 367.34375 410.445312 367.34375 L 319.703125 367.34375 C 319.179688 367.34375 318.664062 367.292969 318.148438 367.1875 C 317.636719 367.085938 317.140625 366.9375 316.65625 366.734375 C 316.171875 366.535156 315.714844 366.289062 315.277344 366 C 314.84375 365.710938 314.441406 365.378906 314.070312 365.007812 C 313.703125 364.640625 313.371094 364.238281 313.082031 363.800781 C 312.792969 363.367188 312.546875 362.910156 312.34375 362.425781 C 312.144531 361.941406 311.996094 361.445312 311.890625 360.929688 C 311.789062 360.417969 311.738281 359.902344 311.738281 359.378906 L 311.738281 358.632812 C 311.742188 358.113281 311.796875 357.597656 311.902344 357.085938 C 312.003906 356.578125 312.160156 356.082031 312.359375 355.601562 C 312.5625 355.121094 312.808594 354.664062 313.097656 354.234375 C 313.390625 353.800781 313.722656 353.402344 314.089844 353.035156 C 314.460938 352.667969 314.859375 352.339844 315.292969 352.050781 C 315.730469 351.761719 316.1875 351.519531 316.667969 351.320312 C 317.148438 351.121094 317.644531 350.972656 318.15625 350.871094 C 318.667969 350.769531 319.183594 350.71875 319.703125 350.71875 L 410.445312 350.71875 C 410.96875 350.71875 411.484375 350.769531 412 350.871094 C 412.511719 350.976562 413.007812 351.125 413.492188 351.328125 C 413.976562 351.527344 414.433594 351.773438 414.867188 352.0625 C 415.304688 352.351562 415.707031 352.683594 416.074219 353.050781 C 416.445312 353.421875 416.777344 353.824219 417.066406 354.257812 C 417.355469 354.695312 417.601562 355.152344 417.800781 355.636719 C 418.003906 356.121094 418.152344 356.617188 418.253906 357.128906 C 418.359375 357.644531 418.410156 358.160156 418.410156 358.683594 Z M 418.410156 359.378906 " fill-opacity="1" fill-rule="nonzero"/></svg>