<svg xmlns="http://www.w3.org/2000/svg" xmlns:xlink="http://www.w3.org/1999/xlink" width="1080" zoomAndPan="magnify" viewBox="0 0 810 809.999993" height="1080" preserveAspectRatio="xMidYMid meet" version="1.0"><defs><clipPath id="5f790e7a99"><path d="M 158.226562 158.226562 L 651.773438 158.226562 L 651.773438 651.773438 L 158.226562 651.773438 Z M 158.226562 158.226562 " clip-rule="nonzero"/></clipPath><clipPath id="0b0b63cad2"><path d="M 405 158.226562 C 268.710938 158.226562 158.226562 268.710938 158.226562 405 C 158.226562 541.289062 268.710938 651.773438 405 651.773438 C 541.289062 651.773438 651.773438 541.289062 651.773438 405 C 651.773438 268.710938 541.289062 158.226562 405 158.226562 Z M 405 158.226562 " clip-rule="nonzero"/></clipPath><clipPath id="c85c961f04"><path d="M 330.660156 295.007812 L 479.160156 295.007812 L 479.160156 492 L 330.660156 492 Z M 330.660156 295.007812 " clip-rule="nonzero"/></clipPath></defs><g clip-path="url(#5f790e7a99)"><g clip-path="url(#0b0b63cad2)"><path fill="#033443" d="M 158.226562 158.226562 L 651.773438 158.226562 L 651.773438 651.773438 L 158.226562 651.773438 Z M 158.226562 158.226562 " fill-opacity="1" fill-rule="nonzero"/></g></g><path fill="#2ef7bf" d="M 426.238281 528.304688 C 426.238281 529 426.203125 529.695312 426.136719 530.386719 C 426.070312 531.078125 425.964844 531.765625 425.832031 532.449219 C 425.695312 533.128906 425.527344 533.804688 425.324219 534.46875 C 425.121094 535.136719 424.886719 535.789062 424.621094 536.433594 C 424.355469 537.074219 424.058594 537.703125 423.730469 538.316406 C 423.402344 538.929688 423.046875 539.527344 422.660156 540.105469 C 422.273438 540.683594 421.859375 541.242188 421.417969 541.777344 C 420.976562 542.316406 420.511719 542.832031 420.019531 543.324219 C 419.527344 543.816406 419.011719 544.28125 418.472656 544.722656 C 417.9375 545.164062 417.378906 545.578125 416.800781 545.964844 C 416.222656 546.351562 415.625 546.707031 415.011719 547.035156 C 414.398438 547.363281 413.769531 547.660156 413.128906 547.925781 C 412.484375 548.195312 411.832031 548.429688 411.164062 548.628906 C 410.5 548.832031 409.824219 549 409.144531 549.136719 C 408.460938 549.273438 407.773438 549.375 407.082031 549.441406 C 406.390625 549.511719 405.695312 549.542969 405 549.542969 C 404.304688 549.542969 403.609375 549.511719 402.917969 549.441406 C 402.226562 549.375 401.539062 549.273438 400.855469 549.136719 C 400.171875 549 399.5 548.832031 398.835938 548.628906 C 398.167969 548.429688 397.515625 548.195312 396.871094 547.925781 C 396.230469 547.660156 395.601562 547.363281 394.988281 547.035156 C 394.375 546.707031 393.777344 546.351562 393.199219 545.964844 C 392.621094 545.578125 392.0625 545.164062 391.527344 544.722656 C 390.988281 544.28125 390.472656 543.816406 389.980469 543.324219 C 389.488281 542.832031 389.023438 542.316406 388.582031 541.777344 C 388.140625 541.242188 387.726562 540.683594 387.339844 540.105469 C 386.953125 539.527344 386.597656 538.929688 386.269531 538.316406 C 385.941406 537.703125 385.644531 537.074219 385.378906 536.433594 C 385.109375 535.789062 384.875 535.136719 384.675781 534.46875 C 384.472656 533.804688 384.304688 533.128906 384.167969 532.449219 C 384.03125 531.765625 383.929688 531.078125 383.863281 530.386719 C 383.792969 529.695312 383.761719 529 383.761719 528.304688 C 383.761719 527.609375 383.792969 526.914062 383.863281 526.222656 C 383.929688 525.53125 384.03125 524.84375 384.167969 524.160156 C 384.304688 523.480469 384.472656 522.804688 384.675781 522.140625 C 384.875 521.472656 385.109375 520.820312 385.378906 520.175781 C 385.644531 519.535156 385.941406 518.90625 386.269531 518.292969 C 386.597656 517.679688 386.953125 517.082031 387.339844 516.503906 C 387.726562 515.925781 388.140625 515.367188 388.582031 514.832031 C 389.023438 514.292969 389.488281 513.777344 389.980469 513.285156 C 390.472656 512.792969 390.988281 512.328125 391.527344 511.886719 C 392.0625 511.445312 392.621094 511.03125 393.199219 510.644531 C 393.777344 510.257812 394.375 509.902344 394.988281 509.574219 C 395.601562 509.246094 396.230469 508.949219 396.871094 508.683594 C 397.515625 508.414062 398.167969 508.183594 398.835938 507.980469 C 399.5 507.777344 400.171875 507.609375 400.855469 507.472656 C 401.539062 507.339844 402.226562 507.234375 402.917969 507.167969 C 403.609375 507.097656 404.304688 507.066406 405 507.066406 C 405.695312 507.066406 406.390625 507.097656 407.082031 507.167969 C 407.773438 507.234375 408.460938 507.339844 409.144531 507.472656 C 409.824219 507.609375 410.5 507.777344 411.164062 507.980469 C 411.832031 508.183594 412.484375 508.414062 413.128906 508.683594 C 413.769531 508.949219 414.398438 509.246094 415.011719 509.574219 C 415.625 509.902344 416.222656 510.257812 416.800781 510.644531 C 417.378906 511.03125 417.9375 511.445312 418.472656 511.886719 C 419.011719 512.328125 419.527344 512.792969 420.019531 513.285156 C 420.511719 513.777344 420.976562 514.292969 421.417969 514.832031 C 421.859375 515.367188 422.273438 515.925781 422.660156 516.503906 C 423.046875 517.082031 423.402344 517.679688 423.730469 518.292969 C 424.058594 518.90625 424.355469 519.535156 424.621094 520.175781 C 424.886719 520.820312 425.121094 521.472656 425.324219 522.140625 C 425.527344 522.804688 425.695312 523.480469 425.832031 524.160156 C 425.964844 524.84375 426.070312 525.53125 426.136719 526.222656 C 426.203125 526.914062 426.238281 527.609375 426.238281 528.304688 Z M 426.238281 528.304688 " fill-opacity="1" fill-rule="nonzero"/><g clip-path="url(#c85c961f04)"><path fill="#2ef7bf" d="M 479.335938 369.007812 C 479.335938 367.792969 479.308594 366.578125 479.246094 365.363281 C 479.1875 364.148438 479.097656 362.933594 478.980469 361.722656 C 478.859375 360.511719 478.710938 359.304688 478.53125 358.101562 C 478.355469 356.898438 478.144531 355.699219 477.910156 354.507812 C 477.671875 353.3125 477.40625 352.125 477.109375 350.945312 C 476.8125 349.765625 476.488281 348.59375 476.136719 347.429688 C 475.785156 346.265625 475.402344 345.109375 474.992188 343.964844 C 474.582031 342.820312 474.144531 341.683594 473.679688 340.5625 C 473.214844 339.4375 472.71875 338.324219 472.199219 337.226562 C 471.679688 336.125 471.132812 335.039062 470.558594 333.964844 C 469.984375 332.894531 469.386719 331.835938 468.761719 330.792969 C 468.136719 329.75 467.484375 328.722656 466.808594 327.710938 C 466.132812 326.699219 465.433594 325.703125 464.707031 324.726562 C 463.984375 323.75 463.234375 322.789062 462.464844 321.851562 C 461.691406 320.910156 460.898438 319.988281 460.082031 319.085938 C 459.261719 318.1875 458.425781 317.304688 457.566406 316.445312 C 456.703125 315.585938 455.824219 314.746094 454.921875 313.929688 C 454.019531 313.113281 453.097656 312.316406 452.160156 311.546875 C 451.21875 310.773438 450.261719 310.023438 449.28125 309.300781 C 448.304688 308.574219 447.3125 307.875 446.300781 307.199219 C 445.289062 306.523438 444.261719 305.875 443.21875 305.246094 C 442.171875 304.621094 441.113281 304.023438 440.042969 303.449219 C 438.96875 302.875 437.882812 302.328125 436.78125 301.808594 C 435.683594 301.289062 434.570312 300.796875 433.449219 300.332031 C 432.324219 299.863281 431.1875 299.425781 430.042969 299.015625 C 428.898438 298.605469 427.742188 298.226562 426.578125 297.871094 C 425.414062 297.519531 424.242188 297.195312 423.0625 296.898438 C 421.882812 296.605469 420.695312 296.335938 419.503906 296.101562 C 418.308594 295.863281 417.109375 295.65625 415.90625 295.476562 C 414.703125 295.296875 413.496094 295.148438 412.285156 295.03125 C 411.074219 294.910156 409.863281 294.820312 408.648438 294.761719 C 407.433594 294.703125 406.214844 294.671875 405 294.671875 C 403.78125 294.671875 402.566406 294.703125 401.351562 294.761719 C 400.136719 294.820312 398.925781 294.910156 397.714844 295.03125 C 396.503906 295.148438 395.296875 295.296875 394.09375 295.476562 C 392.886719 295.65625 391.691406 295.863281 390.496094 296.101562 C 389.304688 296.335938 388.117188 296.605469 386.9375 296.898438 C 385.757812 297.195312 384.585938 297.519531 383.421875 297.871094 C 382.257812 298.226562 381.101562 298.605469 379.957031 299.015625 C 378.808594 299.425781 377.675781 299.863281 376.550781 300.332031 C 375.429688 300.796875 374.316406 301.289062 373.214844 301.808594 C 372.117188 302.328125 371.03125 302.875 369.957031 303.449219 C 368.882812 304.023438 367.824219 304.621094 366.78125 305.246094 C 365.738281 305.875 364.710938 306.523438 363.699219 307.199219 C 362.6875 307.875 361.695312 308.574219 360.714844 309.300781 C 359.738281 310.023438 358.78125 310.773438 357.839844 311.546875 C 356.898438 312.316406 355.980469 313.113281 355.078125 313.929688 C 354.175781 314.746094 353.296875 315.585938 352.433594 316.445312 C 351.574219 317.304688 350.734375 318.1875 349.917969 319.085938 C 349.101562 319.988281 348.308594 320.910156 347.535156 321.851562 C 346.765625 322.789062 346.015625 323.75 345.289062 324.726562 C 344.566406 325.703125 343.867188 326.699219 343.191406 327.710938 C 342.515625 328.722656 341.863281 329.75 341.238281 330.792969 C 340.613281 331.835938 340.011719 332.894531 339.441406 333.964844 C 338.867188 335.039062 338.320312 336.125 337.800781 337.226562 C 337.277344 338.324219 336.785156 339.4375 336.320312 340.5625 C 335.855469 341.683594 335.417969 342.820312 335.007812 343.964844 C 334.597656 345.109375 334.214844 346.265625 333.863281 347.429688 C 333.507812 348.59375 333.183594 349.765625 332.890625 350.945312 C 332.59375 352.125 332.328125 353.3125 332.089844 354.507812 C 331.851562 355.699219 331.644531 356.898438 331.464844 358.101562 C 331.289062 359.304688 331.140625 360.511719 331.019531 361.722656 C 330.902344 362.933594 330.8125 364.148438 330.75 365.363281 C 330.691406 366.578125 330.660156 367.792969 330.660156 369.007812 C 330.660156 369.703125 330.695312 370.398438 330.765625 371.089844 C 330.832031 371.785156 330.933594 372.472656 331.070312 373.152344 C 331.207031 373.835938 331.375 374.507812 331.578125 375.175781 C 331.777344 375.839844 332.011719 376.496094 332.277344 377.136719 C 332.542969 377.78125 332.839844 378.40625 333.167969 379.023438 C 333.496094 379.636719 333.855469 380.230469 334.242188 380.808594 C 334.628906 381.386719 335.042969 381.945312 335.484375 382.484375 C 335.925781 383.019531 336.390625 383.535156 336.882812 384.027344 C 337.375 384.519531 337.890625 384.988281 338.425781 385.425781 C 338.964844 385.867188 339.523438 386.28125 340.101562 386.667969 C 340.679688 387.054688 341.277344 387.414062 341.890625 387.742188 C 342.503906 388.070312 343.128906 388.367188 343.773438 388.632812 C 344.414062 388.898438 345.070312 389.132812 345.734375 389.335938 C 346.402344 389.535156 347.074219 389.703125 347.757812 389.839844 C 348.441406 389.976562 349.128906 390.078125 349.820312 390.148438 C 350.511719 390.214844 351.207031 390.25 351.902344 390.25 C 352.597656 390.25 353.289062 390.214844 353.984375 390.148438 C 354.675781 390.078125 355.363281 389.976562 356.042969 389.839844 C 356.726562 389.703125 357.402344 389.535156 358.066406 389.335938 C 358.730469 389.132812 359.386719 388.898438 360.027344 388.632812 C 360.671875 388.367188 361.300781 388.070312 361.914062 387.742188 C 362.527344 387.414062 363.121094 387.054688 363.699219 386.667969 C 364.28125 386.28125 364.835938 385.867188 365.375 385.425781 C 365.914062 384.988281 366.429688 384.519531 366.917969 384.027344 C 367.410156 383.535156 367.878906 383.019531 368.320312 382.484375 C 368.761719 381.945312 369.175781 381.386719 369.5625 380.808594 C 369.949219 380.230469 370.304688 379.636719 370.632812 379.023438 C 370.960938 378.40625 371.257812 377.78125 371.523438 377.136719 C 371.789062 376.496094 372.023438 375.839844 372.226562 375.175781 C 372.429688 374.507812 372.597656 373.835938 372.734375 373.152344 C 372.867188 372.472656 372.96875 371.785156 373.039062 371.089844 C 373.105469 370.398438 373.140625 369.703125 373.140625 369.007812 C 373.140625 367.964844 373.191406 366.925781 373.292969 365.886719 C 373.394531 364.847656 373.550781 363.816406 373.753906 362.792969 C 373.957031 361.769531 374.210938 360.757812 374.511719 359.761719 C 374.816406 358.761719 375.167969 357.78125 375.566406 356.816406 C 375.964844 355.851562 376.410156 354.910156 376.902344 353.992188 C 377.394531 353.070312 377.929688 352.175781 378.511719 351.308594 C 379.089844 350.441406 379.710938 349.605469 380.371094 348.796875 C 381.035156 347.992188 381.734375 347.21875 382.472656 346.480469 C 383.210938 345.742188 383.980469 345.042969 384.789062 344.382812 C 385.59375 343.71875 386.433594 343.097656 387.300781 342.519531 C 388.167969 341.941406 389.0625 341.402344 389.980469 340.914062 C 390.902344 340.421875 391.84375 339.976562 392.808594 339.574219 C 393.773438 339.175781 394.753906 338.824219 395.75 338.523438 C 396.75 338.21875 397.761719 337.964844 398.785156 337.761719 C 399.808594 337.558594 400.839844 337.40625 401.875 337.304688 C 402.914062 337.203125 403.957031 337.148438 405 337.148438 C 406.042969 337.148438 407.085938 337.203125 408.121094 337.304688 C 409.160156 337.40625 410.191406 337.558594 411.214844 337.761719 C 412.238281 337.964844 413.25 338.21875 414.246094 338.523438 C 415.246094 338.824219 416.226562 339.175781 417.191406 339.574219 C 418.15625 339.976562 419.097656 340.421875 420.019531 340.914062 C 420.9375 341.402344 421.832031 341.941406 422.699219 342.519531 C 423.566406 343.097656 424.402344 343.71875 425.210938 344.382812 C 426.015625 345.042969 426.789062 345.742188 427.527344 346.480469 C 428.265625 347.21875 428.964844 347.992188 429.628906 348.796875 C 430.289062 349.605469 430.910156 350.441406 431.488281 351.308594 C 432.070312 352.175781 432.605469 353.070312 433.097656 353.992188 C 433.589844 354.910156 434.035156 355.851562 434.433594 356.816406 C 434.832031 357.78125 435.183594 358.761719 435.488281 359.761719 C 435.789062 360.757812 436.042969 361.769531 436.246094 362.792969 C 436.449219 363.816406 436.601562 364.847656 436.707031 365.886719 C 436.808594 366.925781 436.859375 367.964844 436.859375 369.007812 C 436.859375 370.054688 436.808594 371.09375 436.707031 372.132812 C 436.601562 373.171875 436.449219 374.203125 436.246094 375.226562 C 436.042969 376.25 435.789062 377.257812 435.488281 378.257812 C 435.183594 379.257812 434.832031 380.238281 434.433594 381.203125 C 434.035156 382.164062 433.589844 383.109375 433.097656 384.027344 C 432.605469 384.949219 432.070312 385.839844 431.488281 386.710938 C 430.910156 387.578125 430.289062 388.414062 429.628906 389.21875 C 428.964844 390.027344 428.265625 390.800781 427.527344 391.539062 C 426.789062 392.273438 426.015625 392.976562 425.210938 393.636719 C 424.402344 394.296875 423.566406 394.917969 422.699219 395.5 C 421.832031 396.078125 420.9375 396.613281 420.019531 397.105469 C 419.097656 397.597656 418.15625 398.042969 417.191406 398.441406 C 416.226562 398.84375 415.246094 399.195312 414.246094 399.496094 C 413.25 399.800781 412.238281 400.054688 411.214844 400.257812 C 410.191406 400.460938 409.160156 400.613281 408.121094 400.714844 C 407.085938 400.816406 406.042969 400.867188 405 400.867188 C 404.304688 400.867188 403.609375 400.902344 402.917969 400.972656 C 402.226562 401.039062 401.539062 401.140625 400.855469 401.277344 C 400.175781 401.414062 399.5 401.582031 398.835938 401.785156 C 398.167969 401.984375 397.515625 402.21875 396.871094 402.484375 C 396.230469 402.75 395.601562 403.050781 394.988281 403.375 C 394.375 403.703125 393.777344 404.0625 393.199219 404.449219 C 392.621094 404.835938 392.0625 405.25 391.527344 405.691406 C 390.988281 406.132812 390.472656 406.597656 389.980469 407.089844 C 389.488281 407.582031 389.023438 408.097656 388.582031 408.632812 C 388.140625 409.171875 387.726562 409.730469 387.339844 410.308594 C 386.953125 410.886719 386.597656 411.484375 386.269531 412.097656 C 385.941406 412.710938 385.644531 413.335938 385.378906 413.980469 C 385.109375 414.621094 384.878906 415.277344 384.675781 415.941406 C 384.472656 416.609375 384.304688 417.28125 384.167969 417.964844 C 384.03125 418.648438 383.929688 419.332031 383.863281 420.027344 C 383.792969 420.71875 383.761719 421.414062 383.761719 422.109375 L 383.761719 469.898438 C 383.761719 470.59375 383.792969 471.285156 383.863281 471.976562 C 383.929688 472.671875 384.03125 473.359375 384.167969 474.039062 C 384.304688 474.722656 384.472656 475.394531 384.675781 476.0625 C 384.875 476.726562 385.109375 477.382812 385.378906 478.023438 C 385.644531 478.667969 385.941406 479.296875 386.269531 479.910156 C 386.597656 480.523438 386.953125 481.117188 387.339844 481.695312 C 387.726562 482.273438 388.140625 482.832031 388.582031 483.371094 C 389.023438 483.910156 389.488281 484.421875 389.980469 484.914062 C 390.472656 485.40625 390.988281 485.875 391.527344 486.316406 C 392.0625 486.757812 392.621094 487.171875 393.199219 487.554688 C 393.777344 487.941406 394.375 488.300781 394.988281 488.628906 C 395.601562 488.957031 396.230469 489.253906 396.871094 489.519531 C 397.515625 489.785156 398.167969 490.019531 398.835938 490.222656 C 399.5 490.421875 400.171875 490.59375 400.855469 490.726562 C 401.539062 490.863281 402.226562 490.964844 402.917969 491.035156 C 403.609375 491.101562 404.304688 491.136719 405 491.136719 C 405.695312 491.136719 406.390625 491.101562 407.082031 491.035156 C 407.773438 490.964844 408.460938 490.863281 409.144531 490.726562 C 409.824219 490.59375 410.5 490.421875 411.164062 490.222656 C 411.832031 490.019531 412.484375 489.785156 413.128906 489.519531 C 413.769531 489.253906 414.398438 488.957031 415.011719 488.628906 C 415.625 488.300781 416.222656 487.941406 416.800781 487.554688 C 417.378906 487.171875 417.9375 486.757812 418.472656 486.316406 C 419.011719 485.875 419.527344 485.40625 420.019531 484.914062 C 420.511719 484.421875 420.976562 483.910156 421.417969 483.371094 C 421.859375 482.832031 422.273438 482.273438 422.660156 481.695312 C 423.046875 481.117188 423.402344 480.523438 423.730469 479.910156 C 424.058594 479.296875 424.355469 478.667969 424.621094 478.023438 C 424.886719 477.382812 425.121094 476.726562 425.324219 476.0625 C 425.527344 475.394531 425.695312 474.722656 425.832031 474.039062 C 425.964844 473.359375 426.070312 472.671875 426.136719 471.976562 C 426.203125 471.285156 426.238281 470.59375 426.238281 469.898438 L 426.238281 440.214844 C 428.140625 439.648438 430.015625 439.003906 431.863281 438.285156 C 433.710938 437.566406 435.53125 436.773438 437.316406 435.910156 C 439.101562 435.046875 440.851562 434.113281 442.5625 433.109375 C 444.273438 432.105469 445.941406 431.035156 447.566406 429.898438 C 449.191406 428.761719 450.769531 427.5625 452.300781 426.296875 C 453.828125 425.035156 455.304688 423.710938 456.730469 422.332031 C 458.15625 420.949219 459.519531 419.511719 460.828125 418.023438 C 462.140625 416.53125 463.386719 414.992188 464.574219 413.402344 C 465.757812 411.808594 466.878906 410.175781 467.933594 408.496094 C 468.988281 406.816406 469.976562 405.09375 470.894531 403.335938 C 471.8125 401.578125 472.65625 399.785156 473.433594 397.957031 C 474.207031 396.132812 474.90625 394.277344 475.53125 392.394531 C 476.160156 390.511719 476.707031 388.609375 477.183594 386.679688 C 477.65625 384.753906 478.054688 382.8125 478.371094 380.855469 C 478.691406 378.894531 478.929688 376.929688 479.089844 374.953125 C 479.253906 372.972656 479.335938 370.992188 479.335938 369.007812 Z M 479.335938 369.007812 " fill-opacity="1" fill-rule="nonzero"/></g></svg>