<svg xmlns="http://www.w3.org/2000/svg" xmlns:xlink="http://www.w3.org/1999/xlink" width="1080" zoomAndPan="magnify" viewBox="0 0 810 809.999993" height="1080" preserveAspectRatio="xMidYMid meet" version="1.0"><defs><clipPath id="d4d4e4c0da"><path d="M 158.226562 158.226562 L 651.773438 158.226562 L 651.773438 651.773438 L 158.226562 651.773438 Z M 158.226562 158.226562 " clip-rule="nonzero"/></clipPath><clipPath id="4b3b240237"><path d="M 405 158.226562 C 268.710938 158.226562 158.226562 268.710938 158.226562 405 C 158.226562 541.289062 268.710938 651.773438 405 651.773438 C 541.289062 651.773438 651.773438 541.289062 651.773438 405 C 651.773438 268.710938 541.289062 158.226562 405 158.226562 Z M 405 158.226562 " clip-rule="nonzero"/></clipPath><clipPath id="907617c158"><path d="M 277.234375 316 L 533 316 L 533 540.347656 L 277.234375 540.347656 Z M 277.234375 316 " clip-rule="nonzero"/></clipPath><clipPath id="11539d0be4"><path d="M 287.363281 352.457031 C 266.644531 386.589844 281.242188 419.816406 299.585938 437.449219 L 406.839844 540.347656 L 511.828125 437.816406 C 528.886719 418.847656 535.425781 398.726562 531.796875 376.320312 C 526.777344 345.328125 501.238281 321.285156 469.6875 317.851562 C 450.339844 315.765625 431.644531 321.242188 417.058594 333.367188 C 413.128906 336.628906 409.621094 340.273438 406.5625 344.238281 C 402.933594 339.726562 398.675781 335.597656 393.863281 331.9375 C 377.085938 319.1875 355.730469 314.125 335.21875 318.0625 C 315.792969 321.816406 298.351562 334.347656 287.363281 352.457031 Z M 287.363281 352.457031 " clip-rule="nonzero"/></clipPath></defs><g clip-path="url(#d4d4e4c0da)"><g clip-path="url(#4b3b240237)"><path fill="#033443" d="M 158.226562 158.226562 L 651.773438 158.226562 L 651.773438 651.773438 L 158.226562 651.773438 Z M 158.226562 158.226562 " fill-opacity="1" fill-rule="nonzero"/></g></g><g clip-path="url(#907617c158)"><g clip-path="url(#11539d0be4)"><path fill="#2ef7bf" d="M 277.234375 316.757812 L 533.140625 316.757812 L 533.140625 540.347656 L 277.234375 540.347656 Z M 277.234375 316.757812 " fill-opacity="1" fill-rule="nonzero"/></g></g></svg>