<svg xmlns="http://www.w3.org/2000/svg" xmlns:xlink="http://www.w3.org/1999/xlink" width="1080" zoomAndPan="magnify" viewBox="0 0 810 809.999993" height="1080" preserveAspectRatio="xMidYMid meet" version="1.0"><path fill="#2e687a" d="M 794.480469 69.496094 C 799.140625 67.65625 804.574219 69.457031 807.15625 73.925781 C 809.992188 78.839844 808.304688 85.132812 803.390625 87.972656 C 800.570312 89.601562 797.296875 89.738281 794.480469 88.632812 L 735.917969 190.066406 C 736.519531 190.597656 737.046875 191.234375 737.472656 191.96875 C 739.578125 195.617188 738.328125 200.292969 734.675781 202.398438 C 731.027344 204.507812 726.355469 203.253906 724.246094 199.605469 C 723.824219 198.871094 723.535156 198.097656 723.375 197.308594 L 600.460938 197.308594 C 600.109375 198.324219 599.40625 199.222656 598.402344 199.804688 C 597.398438 200.382812 596.265625 200.542969 595.210938 200.339844 L 533.644531 306.976562 C 534.214844 307.488281 534.71875 308.097656 535.121094 308.796875 C 537.171875 312.34375 535.953125 316.890625 532.40625 318.9375 C 528.855469 320.984375 524.3125 319.769531 522.265625 316.21875 C 521.859375 315.519531 521.582031 314.78125 521.425781 314.03125 L 401.152344 314.03125 C 400.875 316.09375 399.679688 318.011719 397.742188 319.132812 C 395.800781 320.253906 393.539062 320.328125 391.613281 319.535156 L 333.726562 419.796875 C 334.941406 420.722656 335.992188 421.894531 336.800781 423.296875 C 340.074219 428.96875 338.128906 436.230469 332.457031 439.503906 C 328.894531 441.5625 324.703125 441.558594 321.265625 439.863281 L 261.753906 542.9375 C 262.078125 543.222656 262.363281 543.5625 262.589844 543.957031 C 263.691406 545.863281 263.039062 548.304688 261.132812 549.402344 C 259.226562 550.503906 256.785156 549.851562 255.683594 547.945312 C 255.457031 547.550781 255.304688 547.132812 255.222656 546.710938 L 131.957031 546.710938 C 131.71875 549.070312 130.386719 551.285156 128.175781 552.5625 C 124.527344 554.667969 119.855469 553.417969 117.75 549.765625 C 117.324219 549.035156 117.035156 548.257812 116.875 547.472656 L 0 547.472656 L 0 544.429688 L 116.878906 544.429688 C 117.253906 542.59375 118.296875 540.902344 119.902344 539.75 L 62.5625 440.433594 C 56.6875 443.371094 49.453125 441.253906 46.125 435.492188 C 42.671875 429.503906 44.722656 421.839844 50.710938 418.382812 C 54.484375 416.203125 58.929688 416.214844 62.5625 418.023438 L 120.007812 318.523438 C 119.183594 317.929688 118.472656 317.15625 117.929688 316.21875 C 117.527344 315.519531 117.25 314.78125 117.09375 314.03125 L 0 314.03125 L 0 310.988281 L 117.09375 310.988281 C 117.515625 308.992188 118.746094 307.175781 120.648438 306.078125 C 122.550781 304.980469 124.738281 304.820312 126.675781 305.457031 L 188.242188 198.820312 C 188.050781 198.605469 187.882812 198.363281 187.730469 198.105469 C 186.71875 196.351562 186.984375 194.207031 188.238281 192.753906 L 128.566406 89.390625 C 125.5625 90.617188 122.246094 90.4375 119.457031 89.078125 L 59.585938 192.777344 C 59.914062 193.058594 60.199219 193.398438 60.425781 193.792969 C 61.527344 195.699219 60.871094 198.140625 58.964844 199.242188 C 57.058594 200.339844 54.617188 199.6875 53.515625 197.78125 C 53.289062 197.386719 53.136719 196.96875 53.054688 196.546875 L 0 196.546875 L 0 195.027344 L 53.058594 195.027344 C 53.269531 193.933594 53.9375 192.933594 54.976562 192.332031 C 56.015625 191.734375 57.214844 191.65625 58.269531 192.015625 L 118.140625 88.320312 C 116.769531 87.398438 115.585938 86.164062 114.707031 84.640625 C 113.960938 83.351562 113.503906 81.976562 113.316406 80.585938 L 0 80.585938 L 0 77.542969 L 113.320312 77.542969 C 113.742188 74.488281 115.421875 71.636719 118.140625 69.816406 L 77.921875 0.15625 L 79.679688 0.15625 L 119.457031 69.054688 C 122.394531 67.613281 125.707031 67.582031 128.5625 68.742188 L 168.160156 0.15625 L 171.675781 0.15625 L 131.199219 70.261719 C 132.308594 71.121094 133.269531 72.203125 134.015625 73.492188 C 136.832031 78.375 135.535156 84.511719 131.199219 87.871094 L 190.875 191.230469 C 192.761719 190.871094 194.75 191.710938 195.765625 193.46875 C 195.914062 193.726562 196.035156 193.992188 196.132812 194.265625 L 319.046875 194.265625 C 319.421875 192.429688 320.464844 190.742188 322.070312 189.589844 L 264.730469 90.273438 C 258.851562 93.210938 251.621094 91.09375 248.292969 85.328125 C 244.835938 79.34375 246.890625 71.675781 252.875 68.222656 C 256.652344 66.042969 261.09375 66.054688 264.726562 67.863281 L 303.816406 0.15625 L 305.574219 0.15625 L 266.046875 68.621094 C 267.617188 69.65625 268.976562 71.066406 269.984375 72.804688 C 273.3125 78.570312 271.527344 85.890625 266.046875 89.511719 L 323.386719 188.828125 C 325.1875 188.011719 327.171875 187.953125 328.949219 188.546875 L 387.511719 87.117188 C 386.527344 86.335938 385.675781 85.359375 385.007812 84.207031 C 382.429688 79.742188 383.589844 74.132812 387.511719 71.019531 L 346.601562 0.15625 L 350.113281 0.15625 L 390.148438 69.496094 C 394.808594 67.65625 400.242188 69.457031 402.820312 73.925781 C 403.488281 75.074219 403.902344 76.304688 404.089844 77.542969 L 517.652344 77.542969 C 518.074219 74.488281 519.757812 71.636719 522.472656 69.816406 L 482.257812 0.15625 L 484.011719 0.15625 L 523.789062 69.054688 C 526.730469 67.613281 530.039062 67.582031 532.894531 68.742188 L 572.496094 0.15625 L 576.007812 0.15625 L 535.53125 70.261719 C 536.640625 71.121094 537.605469 72.203125 538.347656 73.492188 C 541.164062 78.375 539.867188 84.511719 535.53125 87.871094 L 595.207031 191.230469 C 597.09375 190.871094 599.085938 191.710938 600.097656 193.46875 C 600.25 193.726562 600.371094 193.992188 600.464844 194.265625 L 723.378906 194.265625 C 723.800781 192.199219 725.074219 190.3125 727.042969 189.175781 C 729.011719 188.039062 731.28125 187.878906 733.28125 188.546875 L 791.84375 87.117188 C 790.863281 86.335938 790.007812 85.359375 789.34375 84.207031 C 786.761719 79.742188 787.921875 74.132812 791.84375 71.019531 L 750.933594 0.15625 L 754.445312 0.15625 Z M 531.007812 305.457031 L 592.574219 198.820312 C 592.386719 198.605469 592.214844 198.363281 592.066406 198.105469 C 591.050781 196.351562 591.316406 194.207031 592.574219 192.753906 L 532.898438 89.390625 C 529.894531 90.617188 526.582031 90.4375 523.792969 89.078125 L 463.921875 192.777344 C 464.246094 193.058594 464.53125 193.398438 464.757812 193.792969 C 465.859375 195.699219 465.203125 198.140625 463.296875 199.242188 C 461.390625 200.339844 458.949219 199.6875 457.851562 197.78125 C 457.621094 197.386719 457.46875 196.96875 457.386719 196.546875 L 334.121094 196.546875 C 333.933594 198.425781 333.050781 200.210938 331.585938 201.507812 L 392.195312 306.488281 C 395.230469 305.539062 398.628906 306.777344 400.28125 309.644531 C 400.53125 310.078125 400.730469 310.527344 400.878906 310.988281 L 521.429688 310.988281 C 521.847656 308.992188 523.078125 307.175781 524.980469 306.078125 C 526.882812 304.980469 529.070312 304.820312 531.007812 305.457031 Z M 331.089844 418.28125 L 389.117188 317.777344 C 388.792969 317.421875 388.503906 317.023438 388.253906 316.589844 C 386.597656 313.722656 387.222656 310.164062 389.5625 308.007812 L 328.949219 203.027344 C 325.578125 204.160156 321.761719 202.800781 319.914062 199.605469 C 319.492188 198.871094 319.203125 198.097656 319.042969 197.308594 L 196.128906 197.308594 C 195.777344 198.324219 195.070312 199.222656 194.066406 199.804688 C 193.0625 200.382812 191.933594 200.542969 190.875 200.339844 L 129.3125 306.976562 C 129.882812 307.484375 130.386719 308.09375 130.789062 308.796875 C 131.328125 309.730469 131.644531 310.738281 131.746094 311.746094 L 254.703125 311.746094 C 254.921875 310.476562 255.683594 309.304688 256.886719 308.613281 C 259.039062 307.371094 261.792969 308.105469 263.035156 310.257812 C 264.148438 312.183594 263.671875 314.59375 262.015625 315.96875 L 321.265625 418.59375 C 324.433594 417.023438 328.015625 417 331.089844 418.28125 Z M 260.4375 542.179688 L 319.949219 439.101562 C 318.472656 438.125 317.195312 436.796875 316.25 435.160156 C 315.441406 433.761719 314.953125 432.261719 314.757812 430.75 L 199.765625 430.75 C 199.335938 433.003906 197.96875 435.0625 195.828125 436.296875 C 193.691406 437.53125 191.222656 437.6875 189.058594 436.933594 L 129.417969 540.230469 C 130.019531 540.761719 130.546875 541.398438 130.972656 542.132812 C 131.53125 543.101562 131.855469 544.144531 131.957031 545.1875 L 255.222656 545.191406 C 255.4375 544.09375 256.105469 543.097656 257.144531 542.496094 C 258.183594 541.894531 259.382812 541.816406 260.4375 542.179688 Z M 63.878906 439.675781 L 121.21875 538.988281 C 123.019531 538.175781 125.007812 538.117188 126.78125 538.710938 L 186.421875 435.414062 C 185.746094 434.832031 185.152344 434.125 184.679688 433.308594 C 182.6875 429.859375 183.507812 425.550781 186.421875 423.046875 L 126.675781 319.5625 C 124.890625 320.148438 122.984375 320.023438 121.328125 319.28125 L 63.878906 418.78125 C 65.453125 419.820312 66.8125 421.226562 67.816406 422.96875 C 71.144531 428.730469 69.363281 436.054688 63.878906 439.675781 Z M 390.148438 88.632812 L 331.585938 190.066406 C 332.1875 190.597656 332.714844 191.234375 333.140625 191.96875 C 333.699219 192.9375 334.023438 193.980469 334.125 195.027344 L 457.390625 195.027344 C 457.605469 193.933594 458.273438 192.933594 459.3125 192.332031 C 460.351562 191.730469 461.550781 191.652344 462.605469 192.015625 L 522.476562 88.316406 C 521.105469 87.398438 519.917969 86.164062 519.039062 84.640625 C 518.296875 83.351562 517.839844 81.976562 517.648438 80.585938 L 404.085938 80.585938 C 403.636719 83.578125 401.878906 86.34375 399.058594 87.972656 C 396.238281 89.601562 392.964844 89.738281 390.148438 88.632812 Z M 199.769531 427.707031 L 314.761719 427.707031 C 315.195312 424.402344 317.003906 421.316406 319.949219 419.355469 L 260.699219 316.730469 C 258.679688 317.476562 256.355469 316.683594 255.242188 314.757812 C 254.96875 314.285156 254.789062 313.78125 254.703125 313.269531 L 131.746094 313.269531 C 131.558594 315.074219 130.714844 316.789062 129.3125 318.042969 L 189.058594 421.523438 C 192.6875 420.253906 196.824219 421.699219 198.816406 425.148438 C 199.289062 425.964844 199.601562 426.832031 199.769531 427.707031 Z M 665.800781 83.101562 C 663.574219 84.386719 660.722656 83.625 659.4375 81.398438 C 658.152344 79.167969 658.914062 76.316406 661.140625 75.03125 C 663.371094 73.746094 666.222656 74.511719 667.507812 76.738281 C 668.792969 78.964844 668.027344 81.816406 665.800781 83.101562 Z M 665.800781 83.101562 " fill-opacity="1" fill-rule="evenodd"/></svg>