<svg xmlns="http://www.w3.org/2000/svg" xmlns:xlink="http://www.w3.org/1999/xlink" width="1080" zoomAndPan="magnify" viewBox="0 0 810 809.999993" height="1080" preserveAspectRatio="xMidYMid meet" version="1.0"><defs><clipPath id="8d9829e946"><path d="M 12 285.285156 L 95 285.285156 L 95 346 L 12 346 Z M 12 285.285156 " clip-rule="nonzero"/></clipPath><clipPath id="b4f7911832"><path d="M 714 464 L 797 464 L 797 524.535156 L 714 524.535156 Z M 714 464 " clip-rule="nonzero"/></clipPath><clipPath id="0c331858f8"><path d="M 98 303 L 797.949219 303 L 797.949219 461 L 98 461 Z M 98 303 " clip-rule="nonzero"/></clipPath><clipPath id="23da240434"><path d="M 11.949219 349 L 716 349 L 716 507 L 11.949219 507 Z M 11.949219 349 " clip-rule="nonzero"/></clipPath></defs><g clip-path="url(#8d9829e946)"><path fill="#2e687a" d="M 46.433594 285.378906 C 47.671875 285.378906 48.683594 285.769531 49.484375 286.539062 C 50.289062 287.308594 50.691406 288.289062 50.691406 289.460938 C 50.691406 291.316406 49.519531 292.855469 47.171875 294.082031 C 41.5625 297.046875 37.449219 299.914062 34.863281 302.691406 C 32.453125 305.351562 31.25 307.292969 31.25 308.519531 C 31.25 309.746094 32.171875 310.410156 34.027344 310.648438 L 35.136719 310.746094 L 36.613281 310.929688 C 40.628906 311.484375 43.863281 313.316406 46.335938 316.433594 C 48.800781 319.546875 50.039062 323.359375 50.039062 327.863281 C 50.039062 332.367188 48.496094 336.320312 45.414062 339.714844 C 41.953125 343.484375 37.480469 345.359375 31.988281 345.359375 C 26.496094 345.359375 22.175781 343.296875 18.472656 339.164062 C 14.585938 334.960938 12.644531 329.6875 12.644531 323.335938 C 12.644531 317.726562 14.585938 311.90625 18.472656 305.882812 C 22.359375 299.867188 27.417969 294.820312 33.660156 290.75 C 39.097656 287.167969 43.351562 285.378906 46.433594 285.378906 Z M 90.691406 285.378906 C 91.925781 285.378906 92.9375 285.769531 93.738281 286.539062 C 94.542969 287.308594 94.945312 288.289062 94.945312 289.460938 C 94.945312 291.316406 93.773438 292.855469 91.425781 294.082031 C 85.816406 297.046875 81.703125 299.914062 79.117188 302.691406 C 76.707031 305.351562 75.503906 307.292969 75.503906 308.519531 C 75.503906 309.746094 76.425781 310.410156 78.28125 310.648438 L 79.390625 310.746094 L 80.867188 310.929688 C 84.882812 311.484375 88.117188 313.316406 90.59375 316.433594 C 93.054688 319.546875 94.292969 323.359375 94.292969 327.863281 C 94.292969 332.367188 92.75 336.320312 89.667969 339.714844 C 86.207031 343.484375 81.734375 345.359375 76.242188 345.359375 C 70.75 345.359375 66.429688 343.296875 62.726562 339.164062 C 58.84375 334.960938 56.898438 329.6875 56.898438 323.335938 C 56.898438 317.726562 58.84375 311.90625 62.726562 305.882812 C 66.613281 299.867188 71.671875 294.820312 77.914062 290.75 C 83.339844 287.167969 87.605469 285.378906 90.691406 285.378906 Z M 90.691406 285.378906 " fill-opacity="1" fill-rule="nonzero"/></g><g clip-path="url(#b4f7911832)"><path fill="#2e687a" d="M 763.167969 524.648438 C 761.929688 524.648438 760.921875 524.257812 760.117188 523.484375 C 759.3125 522.714844 758.914062 521.738281 758.914062 520.566406 C 758.914062 518.710938 760.085938 517.167969 762.429688 515.941406 C 768.042969 512.976562 772.15625 510.113281 774.738281 507.335938 C 777.148438 504.675781 778.351562 502.730469 778.351562 501.503906 C 778.351562 500.277344 777.429688 499.617188 775.574219 499.378906 L 774.46875 499.28125 L 772.992188 499.09375 C 768.976562 498.542969 765.742188 496.707031 763.265625 493.59375 C 760.800781 490.476562 759.5625 486.667969 759.5625 482.160156 C 759.5625 477.65625 761.105469 473.707031 764.1875 470.308594 C 767.652344 466.542969 772.121094 464.664062 777.617188 464.664062 C 782.921875 464.664062 787.429688 466.726562 791.128906 470.863281 C 795.015625 475.0625 796.957031 480.339844 796.957031 486.6875 C 796.957031 492.300781 795.015625 498.117188 791.128906 504.144531 C 787.242188 510.15625 782.183594 515.203125 775.945312 519.273438 C 770.515625 522.855469 766.25 524.648438 763.167969 524.648438 Z M 718.914062 524.648438 C 717.675781 524.648438 716.667969 524.257812 715.863281 523.484375 C 715.058594 522.714844 714.65625 521.738281 714.65625 520.566406 C 714.65625 518.710938 715.832031 517.167969 718.175781 515.941406 C 723.785156 512.976562 727.902344 510.113281 730.484375 507.335938 C 732.894531 504.675781 734.097656 502.730469 734.097656 501.503906 C 734.097656 500.277344 733.175781 499.617188 731.320312 499.378906 L 730.214844 499.28125 L 728.738281 499.09375 C 724.71875 498.542969 721.484375 496.707031 719.011719 493.59375 C 716.546875 490.476562 715.308594 486.667969 715.308594 482.160156 C 715.308594 477.65625 716.851562 473.707031 719.933594 470.308594 C 723.394531 466.542969 727.867188 464.664062 733.359375 464.664062 C 738.667969 464.664062 743.171875 466.726562 746.875 470.863281 C 750.761719 475.0625 752.703125 480.339844 752.703125 486.6875 C 752.703125 492.300781 750.761719 498.117188 746.875 504.144531 C 742.988281 510.15625 737.929688 515.203125 731.6875 519.273438 C 726.261719 522.855469 721.996094 524.648438 718.914062 524.648438 Z M 718.914062 524.648438 " fill-opacity="1" fill-rule="nonzero"/></g><g clip-path="url(#0c331858f8)"><path fill="#2e687a" d="M 754.851562 307.230469 C 776.941406 307.230469 794.839844 325.128906 794.839844 347.21875 L 794.839844 459.367188 C 794.839844 460.269531 795.570312 460.996094 796.46875 460.996094 C 797.371094 460.996094 798.097656 460.269531 798.097656 459.367188 L 798.097656 347.226562 C 798.097656 323.347656 778.734375 303.984375 754.851562 303.984375 L 99.773438 303.984375 C 98.875 303.984375 98.148438 304.710938 98.148438 305.609375 C 98.148438 306.511719 98.875 307.238281 99.773438 307.238281 L 754.851562 307.238281 Z M 754.851562 307.230469 " fill-opacity="1" fill-rule="nonzero"/></g><g clip-path="url(#23da240434)"><path fill="#2e687a" d="M 55.195312 502.785156 C 33.105469 502.785156 15.207031 484.886719 15.207031 462.796875 L 15.207031 350.648438 C 15.207031 349.746094 14.480469 349.019531 13.578125 349.019531 C 12.675781 349.019531 11.949219 349.746094 11.949219 350.648438 L 11.949219 462.796875 C 11.949219 486.675781 31.316406 506.042969 55.195312 506.042969 L 713.867188 506.042969 C 714.765625 506.042969 715.492188 505.316406 715.492188 504.414062 C 715.492188 503.511719 714.765625 502.785156 713.867188 502.785156 Z M 55.195312 502.785156 " fill-opacity="1" fill-rule="nonzero"/></g></svg>