<svg xmlns="http://www.w3.org/2000/svg" xmlns:xlink="http://www.w3.org/1999/xlink" width="1080" zoomAndPan="magnify" viewBox="0 0 810 809.999993" height="1080" preserveAspectRatio="xMidYMid meet" version="1.0"><defs><clipPath id="4702864735"><path d="M 146.554688 146.554688 L 663.304688 146.554688 L 663.304688 663.304688 L 146.554688 663.304688 Z M 146.554688 146.554688 " clip-rule="nonzero"/></clipPath><clipPath id="74f986745e"><path d="M 405 146.554688 C 262.265625 146.554688 146.554688 262.265625 146.554688 405 C 146.554688 547.734375 262.265625 663.445312 405 663.445312 C 547.734375 663.445312 663.445312 547.734375 663.445312 405 C 663.445312 262.265625 547.734375 146.554688 405 146.554688 Z M 405 146.554688 " clip-rule="nonzero"/></clipPath><clipPath id="f89c4d4385"><path d="M 269.402344 246.871094 L 540.902344 246.871094 L 540.902344 563.371094 L 269.402344 563.371094 Z M 269.402344 246.871094 " clip-rule="nonzero"/></clipPath></defs><g clip-path="url(#4702864735)"><g clip-path="url(#74f986745e)"><path stroke-linecap="butt" transform="matrix(0.75, 0, 0, 0.75, 146.554479, 146.554465)" fill="none" stroke-linejoin="miter" d="M 344.594045 0.000297164 C 154.281535 0.000297164 0.000277564 154.281555 0.000277564 344.594065 C 0.000277564 534.906574 154.281535 689.187832 344.594045 689.187832 C 534.906554 689.187832 689.187812 534.906574 689.187812 344.594065 C 689.187812 154.281555 534.906554 0.000297164 344.594045 0.000297164 Z M 344.594045 0.000297164 " stroke="#ffffff" stroke-width="48" stroke-opacity="1" stroke-miterlimit="4"/></g></g><g clip-path="url(#f89c4d4385)"><path fill="#ffffff" d="M 458.191406 435.039062 C 459.753906 434.082031 461.285156 433.085938 462.789062 432.042969 C 464.292969 431.003906 465.769531 429.925781 467.214844 428.804688 C 468.664062 427.683594 470.078125 426.527344 471.460938 425.332031 C 472.847656 424.132812 474.199219 422.902344 475.515625 421.632812 C 476.832031 420.363281 478.113281 419.058594 479.363281 417.722656 C 480.609375 416.382812 481.820312 415.011719 482.992188 413.609375 C 484.164062 412.203125 485.300781 410.769531 486.394531 409.304688 C 487.492188 407.839844 488.546875 406.347656 489.5625 404.824219 C 490.578125 403.304688 491.550781 401.753906 492.480469 400.179688 C 493.414062 398.605469 494.300781 397.007812 495.148438 395.386719 C 495.992188 393.761719 496.792969 392.121094 497.550781 390.453125 C 498.304688 388.789062 499.015625 387.101562 499.683594 385.398438 C 500.347656 383.695312 500.96875 381.972656 501.539062 380.238281 C 502.113281 378.5 502.636719 376.746094 503.117188 374.980469 C 503.59375 373.214844 504.023438 371.4375 504.40625 369.648438 C 504.789062 367.859375 505.121094 366.0625 505.40625 364.253906 C 505.691406 362.449219 505.929688 360.636719 506.113281 358.816406 C 506.300781 356.996094 506.441406 355.171875 506.527344 353.34375 C 506.617188 351.519531 506.65625 349.6875 506.644531 347.859375 C 506.636719 346.03125 506.578125 344.203125 506.46875 342.375 C 506.359375 340.550781 506.203125 338.730469 505.996094 336.910156 C 505.789062 335.09375 505.53125 333.28125 505.226562 331.480469 C 504.921875 329.675781 504.566406 327.882812 504.167969 326.097656 C 503.765625 324.3125 503.316406 322.539062 502.816406 320.777344 C 502.320312 319.019531 501.777344 317.273438 501.183594 315.542969 C 500.59375 313.808594 499.953125 312.097656 499.269531 310.398438 C 498.585938 308.703125 497.855469 307.027344 497.082031 305.367188 C 496.308594 303.710938 495.488281 302.078125 494.625 300.464844 C 493.761719 298.851562 492.855469 297.261719 491.90625 295.699219 C 490.957031 294.132812 489.96875 292.597656 488.9375 291.085938 C 487.90625 289.574219 486.832031 288.09375 485.722656 286.640625 C 484.609375 285.1875 483.460938 283.765625 482.269531 282.375 C 481.082031 280.984375 479.855469 279.628906 478.59375 278.304688 C 477.332031 276.976562 476.035156 275.6875 474.707031 274.433594 C 473.375 273.179688 472.007812 271.960938 470.613281 270.78125 C 469.214844 269.601562 467.789062 268.457031 466.328125 267.355469 C 464.871094 266.25 463.382812 265.1875 461.867188 264.164062 C 460.347656 263.140625 458.804688 262.15625 457.238281 261.21875 C 455.667969 260.277344 454.074219 259.378906 452.457031 258.527344 C 450.839844 257.671875 449.199219 256.863281 447.539062 256.097656 C 445.875 255.332031 444.195312 254.609375 442.496094 253.9375 C 440.792969 253.261719 439.078125 252.632812 437.34375 252.050781 C 435.609375 251.46875 433.859375 250.933594 432.097656 250.445312 C 430.332031 249.957031 428.558594 249.519531 426.773438 249.125 C 424.984375 248.734375 423.1875 248.390625 421.382812 248.097656 C 419.578125 247.800781 417.765625 247.554688 415.945312 247.359375 C 414.128906 247.160156 412.304688 247.011719 410.480469 246.914062 C 408.652344 246.816406 406.824219 246.765625 404.996094 246.765625 C 403.164062 246.765625 401.335938 246.816406 399.511719 246.914062 C 397.683594 247.011719 395.863281 247.160156 394.042969 247.359375 C 392.222656 247.554688 390.410156 247.800781 388.605469 248.097656 C 386.800781 248.390625 385.003906 248.734375 383.21875 249.125 C 381.429688 249.519531 379.65625 249.957031 377.894531 250.445312 C 376.128906 250.933594 374.382812 251.46875 372.648438 252.050781 C 370.914062 252.632812 369.195312 253.261719 367.496094 253.9375 C 365.792969 254.609375 364.113281 255.332031 362.453125 256.097656 C 360.789062 256.863281 359.152344 257.671875 357.53125 258.527344 C 355.914062 259.378906 354.320312 260.277344 352.753906 261.21875 C 351.183594 262.15625 349.640625 263.140625 348.125 264.164062 C 346.609375 265.1875 345.121094 266.25 343.660156 267.355469 C 342.203125 268.457031 340.773438 269.601562 339.378906 270.78125 C 337.980469 271.960938 336.617188 273.179688 335.285156 274.433594 C 333.953125 275.6875 332.65625 276.976562 331.394531 278.304688 C 330.132812 279.628906 328.90625 280.984375 327.71875 282.375 C 326.53125 283.765625 325.378906 285.1875 324.269531 286.640625 C 323.15625 288.09375 322.085938 289.574219 321.054688 291.085938 C 320.019531 292.597656 319.03125 294.132812 318.082031 295.699219 C 317.132812 297.261719 316.226562 298.851562 315.363281 300.464844 C 314.5 302.078125 313.683594 303.710938 312.90625 305.367188 C 312.132812 307.027344 311.402344 308.703125 310.71875 310.398438 C 310.035156 312.097656 309.398438 313.808594 308.804688 315.542969 C 308.214844 317.273438 307.667969 319.019531 307.171875 320.777344 C 306.675781 322.539062 306.226562 324.3125 305.824219 326.097656 C 305.421875 327.882812 305.066406 329.675781 304.761719 331.480469 C 304.457031 333.28125 304.203125 335.09375 303.996094 336.910156 C 303.789062 338.730469 303.628906 340.550781 303.523438 342.375 C 303.414062 344.203125 303.351562 346.03125 303.34375 347.859375 C 303.332031 349.6875 303.371094 351.519531 303.460938 353.34375 C 303.550781 355.171875 303.6875 356.996094 303.875 358.816406 C 304.0625 360.636719 304.296875 362.449219 304.582031 364.253906 C 304.867188 366.0625 305.203125 367.859375 305.582031 369.648438 C 305.964844 371.4375 306.394531 373.214844 306.875 374.980469 C 307.351562 376.746094 307.878906 378.5 308.449219 380.238281 C 309.023438 381.972656 309.640625 383.695312 310.308594 385.398438 C 310.972656 387.101562 311.683594 388.789062 312.441406 390.453125 C 313.195312 392.121094 313.996094 393.761719 314.84375 395.386719 C 315.6875 397.007812 316.574219 398.605469 317.507812 400.179688 C 318.4375 401.753906 319.414062 403.304688 320.425781 404.824219 C 321.441406 406.347656 322.496094 407.839844 323.59375 409.304688 C 324.6875 410.769531 325.824219 412.203125 326.996094 413.609375 C 328.171875 415.011719 329.378906 416.382812 330.628906 417.722656 C 331.875 419.058594 333.15625 420.363281 334.476562 421.632812 C 335.792969 422.902344 337.144531 424.132812 338.527344 425.332031 C 339.910156 426.527344 341.328125 427.683594 342.773438 428.804688 C 344.21875 429.925781 345.695312 431.003906 347.199219 432.042969 C 348.707031 433.085938 350.238281 434.082031 351.796875 435.039062 C 348.808594 436.109375 345.867188 437.292969 342.96875 438.589844 C 340.074219 439.886719 337.230469 441.289062 334.441406 442.804688 C 331.652344 444.316406 328.925781 445.933594 326.261719 447.65625 C 323.59375 449.378906 321 451.203125 318.472656 453.125 C 315.949219 455.042969 313.5 457.058594 311.128906 459.167969 C 308.757812 461.277344 306.472656 463.472656 304.269531 465.757812 C 302.066406 468.042969 299.953125 470.40625 297.933594 472.851562 C 295.910156 475.300781 293.984375 477.820312 292.15625 480.414062 C 290.328125 483.007812 288.601562 485.664062 286.976562 488.390625 C 285.351562 491.117188 283.835938 493.902344 282.421875 496.742188 C 281.011719 499.585938 279.710938 502.476562 278.519531 505.417969 C 277.332031 508.363281 276.257812 511.34375 275.292969 514.367188 C 274.332031 517.394531 273.488281 520.449219 272.761719 523.539062 C 272.035156 526.628906 271.425781 529.738281 270.9375 532.875 C 270.449219 536.011719 270.082031 539.160156 269.835938 542.324219 C 269.585938 545.488281 269.460938 548.65625 269.457031 551.828125 C 269.457031 552.570312 269.53125 553.304688 269.675781 554.03125 C 269.820312 554.757812 270.035156 555.464844 270.316406 556.152344 C 270.601562 556.835938 270.949219 557.488281 271.359375 558.105469 C 271.773438 558.71875 272.242188 559.289062 272.765625 559.816406 C 273.289062 560.339844 273.859375 560.808594 274.476562 561.21875 C 275.09375 561.632812 275.746094 561.980469 276.429688 562.261719 C 277.113281 562.546875 277.820312 562.761719 278.546875 562.90625 C 279.277344 563.050781 280.011719 563.125 280.753906 563.125 L 529.238281 563.125 C 529.980469 563.125 530.714844 563.050781 531.441406 562.90625 C 532.167969 562.761719 532.875 562.546875 533.558594 562.261719 C 534.246094 561.980469 534.894531 561.632812 535.511719 561.21875 C 536.128906 560.808594 536.699219 560.339844 537.222656 559.816406 C 537.75 559.289062 538.214844 558.71875 538.628906 558.105469 C 539.039062 557.488281 539.386719 556.835938 539.671875 556.152344 C 539.957031 555.464844 540.171875 554.757812 540.316406 554.03125 C 540.460938 553.304688 540.53125 552.570312 540.53125 551.828125 C 540.527344 548.65625 540.402344 545.488281 540.15625 542.324219 C 539.90625 539.160156 539.539062 536.011719 539.050781 532.875 C 538.5625 529.738281 537.953125 526.628906 537.226562 523.539062 C 536.5 520.449219 535.65625 517.394531 534.695312 514.367188 C 533.734375 511.34375 532.660156 508.363281 531.46875 505.417969 C 530.277344 502.476562 528.976562 499.585938 527.566406 496.742188 C 526.15625 493.902344 524.636719 491.117188 523.011719 488.390625 C 521.386719 485.664062 519.660156 483.007812 517.832031 480.414062 C 516.003906 477.820312 514.078125 475.300781 512.058594 472.851562 C 510.035156 470.40625 507.925781 468.042969 505.722656 465.757812 C 503.519531 463.472656 501.230469 461.277344 498.859375 459.167969 C 496.488281 457.058594 494.039062 455.042969 491.515625 453.125 C 488.988281 451.203125 486.394531 449.378906 483.730469 447.65625 C 481.0625 445.933594 478.335938 444.316406 475.546875 442.804688 C 472.757812 441.289062 469.917969 439.886719 467.019531 438.589844 C 464.121094 437.292969 461.179688 436.109375 458.191406 435.039062 Z M 325.929688 348.523438 C 325.929688 347.230469 325.964844 345.933594 326.027344 344.644531 C 326.089844 343.351562 326.183594 342.0625 326.3125 340.773438 C 326.4375 339.484375 326.597656 338.203125 326.789062 336.921875 C 326.976562 335.640625 327.199219 334.367188 327.449219 333.097656 C 327.703125 331.828125 327.988281 330.566406 328.300781 329.3125 C 328.617188 328.054688 328.960938 326.808594 329.335938 325.570312 C 329.710938 324.332031 330.117188 323.105469 330.554688 321.886719 C 330.988281 320.667969 331.453125 319.460938 331.949219 318.265625 C 332.445312 317.070312 332.96875 315.886719 333.523438 314.71875 C 334.074219 313.550781 334.65625 312.394531 335.265625 311.253906 C 335.878906 310.109375 336.515625 308.984375 337.179688 307.875 C 337.84375 306.765625 338.539062 305.671875 339.257812 304.597656 C 339.976562 303.519531 340.71875 302.464844 341.492188 301.425781 C 342.261719 300.386719 343.058594 299.367188 343.878906 298.367188 C 344.699219 297.363281 345.542969 296.386719 346.414062 295.425781 C 347.28125 294.46875 348.171875 293.53125 349.089844 292.617188 C 350.003906 291.703125 350.941406 290.808594 351.898438 289.941406 C 352.859375 289.070312 353.835938 288.226562 354.835938 287.40625 C 355.835938 286.585938 356.859375 285.789062 357.898438 285.019531 C 358.9375 284.246094 359.992188 283.503906 361.070312 282.785156 C 362.144531 282.066406 363.238281 281.371094 364.347656 280.707031 C 365.457031 280.042969 366.582031 279.40625 367.726562 278.792969 C 368.867188 278.183594 370.019531 277.601562 371.191406 277.050781 C 372.359375 276.496094 373.542969 275.972656 374.738281 275.476562 C 375.933594 274.980469 377.140625 274.515625 378.359375 274.082031 C 379.578125 273.644531 380.804688 273.238281 382.042969 272.863281 C 383.28125 272.488281 384.527344 272.144531 385.785156 271.828125 C 387.039062 271.515625 388.300781 271.230469 389.570312 270.976562 C 390.839844 270.726562 392.113281 270.503906 393.394531 270.316406 C 394.671875 270.125 395.957031 269.964844 397.246094 269.839844 C 398.53125 269.714844 399.824219 269.617188 401.117188 269.554688 C 402.40625 269.492188 403.699219 269.460938 404.996094 269.460938 C 406.289062 269.460938 407.582031 269.492188 408.875 269.554688 C 410.167969 269.617188 411.457031 269.714844 412.746094 269.839844 C 414.03125 269.964844 415.316406 270.125 416.597656 270.316406 C 417.875 270.503906 419.148438 270.726562 420.417969 270.976562 C 421.6875 271.230469 422.949219 271.515625 424.207031 271.828125 C 425.460938 272.144531 426.707031 272.488281 427.945312 272.863281 C 429.183594 273.238281 430.414062 273.644531 431.628906 274.082031 C 432.847656 274.515625 434.054688 274.980469 435.25 275.476562 C 436.445312 275.972656 437.628906 276.496094 438.800781 277.050781 C 439.96875 277.601562 441.125 278.183594 442.265625 278.792969 C 443.40625 279.40625 444.53125 280.042969 445.640625 280.707031 C 446.75 281.371094 447.84375 282.066406 448.921875 282.785156 C 449.996094 283.503906 451.054688 284.246094 452.09375 285.019531 C 453.132812 285.789062 454.152344 286.585938 455.152344 287.40625 C 456.152344 288.226562 457.132812 289.070312 458.089844 289.941406 C 459.050781 290.808594 459.984375 291.703125 460.902344 292.617188 C 461.816406 293.53125 462.707031 294.46875 463.578125 295.425781 C 464.445312 296.386719 465.289062 297.363281 466.113281 298.367188 C 466.933594 299.367188 467.726562 300.386719 468.5 301.425781 C 469.269531 302.464844 470.015625 303.519531 470.734375 304.597656 C 471.453125 305.671875 472.144531 306.765625 472.808594 307.875 C 473.476562 308.984375 474.113281 310.109375 474.722656 311.253906 C 475.332031 312.394531 475.914062 313.550781 476.46875 314.71875 C 477.019531 315.886719 477.542969 317.070312 478.039062 318.265625 C 478.535156 319.460938 479 320.667969 479.4375 321.886719 C 479.871094 323.105469 480.277344 324.332031 480.652344 325.570312 C 481.03125 326.808594 481.375 328.054688 481.6875 329.3125 C 482.003906 330.566406 482.285156 331.828125 482.539062 333.097656 C 482.792969 334.367188 483.011719 335.640625 483.203125 336.921875 C 483.390625 338.203125 483.550781 339.484375 483.675781 340.773438 C 483.804688 342.0625 483.898438 343.351562 483.964844 344.644531 C 484.027344 345.933594 484.058594 347.230469 484.058594 348.523438 C 484.058594 349.816406 484.027344 351.109375 483.964844 352.402344 C 483.898438 353.695312 483.804688 354.984375 483.675781 356.273438 C 483.550781 357.558594 483.390625 358.84375 483.203125 360.125 C 483.011719 361.402344 482.792969 362.679688 482.539062 363.945312 C 482.285156 365.214844 482.003906 366.476562 481.6875 367.734375 C 481.375 368.988281 481.03125 370.234375 480.652344 371.472656 C 480.277344 372.710938 479.871094 373.941406 479.4375 375.160156 C 479 376.375 478.535156 377.582031 478.039062 378.777344 C 477.542969 379.972656 477.019531 381.15625 476.46875 382.328125 C 475.914062 383.496094 475.332031 384.652344 474.722656 385.792969 C 474.113281 386.933594 473.476562 388.058594 472.808594 389.167969 C 472.144531 390.277344 471.453125 391.371094 470.734375 392.449219 C 470.015625 393.523438 469.269531 394.582031 468.5 395.621094 C 467.726562 396.660156 466.933594 397.679688 466.113281 398.679688 C 465.289062 399.679688 464.445312 400.660156 463.578125 401.617188 C 462.707031 402.578125 461.816406 403.515625 460.902344 404.429688 C 459.984375 405.34375 459.050781 406.234375 458.089844 407.105469 C 457.132812 407.972656 456.152344 408.820312 455.152344 409.640625 C 454.152344 410.460938 453.132812 411.257812 452.09375 412.027344 C 451.054688 412.796875 449.996094 413.542969 448.921875 414.261719 C 447.84375 414.980469 446.75 415.671875 445.640625 416.335938 C 444.53125 417.003906 443.40625 417.640625 442.265625 418.25 C 441.125 418.859375 439.96875 419.441406 438.800781 419.996094 C 437.628906 420.546875 436.445312 421.074219 435.25 421.566406 C 434.054688 422.0625 432.847656 422.527344 431.628906 422.964844 C 430.414062 423.398438 429.183594 423.804688 427.945312 424.179688 C 426.707031 424.558594 425.460938 424.902344 424.207031 425.214844 C 422.949219 425.53125 421.6875 425.8125 420.417969 426.066406 C 419.148438 426.320312 417.875 426.539062 416.597656 426.730469 C 415.316406 426.921875 414.03125 427.078125 412.746094 427.207031 C 411.457031 427.332031 410.167969 427.425781 408.875 427.492188 C 407.582031 427.554688 406.289062 427.585938 404.996094 427.585938 C 403.699219 427.585938 402.40625 427.554688 401.117188 427.492188 C 399.824219 427.425781 398.53125 427.332031 397.246094 427.207031 C 395.957031 427.078125 394.671875 426.921875 393.394531 426.730469 C 392.113281 426.539062 390.839844 426.320312 389.570312 426.066406 C 388.300781 425.8125 387.039062 425.53125 385.785156 425.214844 C 384.527344 424.902344 383.28125 424.558594 382.042969 424.179688 C 380.804688 423.804688 379.578125 423.398438 378.359375 422.964844 C 377.140625 422.527344 375.933594 422.0625 374.738281 421.566406 C 373.542969 421.074219 372.359375 420.546875 371.191406 419.996094 C 370.019531 419.441406 368.867188 418.859375 367.726562 418.25 C 366.582031 417.640625 365.457031 417.003906 364.347656 416.335938 C 363.238281 415.671875 362.144531 414.980469 361.070312 414.261719 C 359.992188 413.542969 358.9375 412.796875 357.898438 412.027344 C 356.859375 411.257812 355.835938 410.460938 354.835938 409.640625 C 353.835938 408.820312 352.859375 407.972656 351.898438 407.105469 C 350.941406 406.234375 350.003906 405.34375 349.089844 404.429688 C 348.171875 403.515625 347.28125 402.578125 346.414062 401.617188 C 345.542969 400.660156 344.699219 399.679688 343.878906 398.679688 C 343.058594 397.679688 342.261719 396.660156 341.492188 395.621094 C 340.71875 394.582031 339.976562 393.523438 339.257812 392.449219 C 338.539062 391.371094 337.84375 390.277344 337.179688 389.167969 C 336.515625 388.058594 335.878906 386.933594 335.265625 385.792969 C 334.65625 384.652344 334.074219 383.496094 333.523438 382.328125 C 332.96875 381.15625 332.445312 379.972656 331.949219 378.777344 C 331.453125 377.582031 330.988281 376.375 330.554688 375.160156 C 330.117188 373.941406 329.710938 372.710938 329.335938 371.472656 C 328.960938 370.234375 328.617188 368.988281 328.300781 367.734375 C 327.988281 366.476562 327.703125 365.214844 327.449219 363.945312 C 327.199219 362.679688 326.976562 361.402344 326.789062 360.125 C 326.597656 358.84375 326.4375 357.558594 326.3125 356.273438 C 326.183594 354.984375 326.089844 353.695312 326.027344 352.402344 C 325.964844 351.109375 325.929688 349.816406 325.929688 348.523438 Z M 292.726562 540.535156 C 292.894531 539 293.101562 537.46875 293.34375 535.941406 C 293.585938 534.414062 293.863281 532.894531 294.171875 531.382812 C 294.484375 529.867188 294.828125 528.363281 295.207031 526.863281 C 295.585938 525.367188 296 523.878906 296.449219 522.398438 C 296.894531 520.921875 297.375 519.453125 297.890625 517.996094 C 298.40625 516.539062 298.953125 515.09375 299.53125 513.660156 C 300.113281 512.230469 300.726562 510.8125 301.371094 509.40625 C 302.015625 508.003906 302.691406 506.613281 303.398438 505.242188 C 304.109375 503.867188 304.847656 502.511719 305.617188 501.171875 C 306.386719 499.832031 307.1875 498.511719 308.015625 497.207031 C 308.847656 495.902344 309.707031 494.621094 310.597656 493.355469 C 311.484375 492.09375 312.402344 490.847656 313.347656 489.628906 C 314.292969 488.40625 315.265625 487.207031 316.265625 486.027344 C 317.265625 484.851562 318.292969 483.695312 319.34375 482.5625 C 320.398438 481.433594 321.476562 480.328125 322.578125 479.246094 C 323.683594 478.164062 324.808594 477.105469 325.960938 476.078125 C 327.113281 475.046875 328.289062 474.042969 329.484375 473.066406 C 330.683594 472.089844 331.902344 471.140625 333.140625 470.21875 C 334.382812 469.296875 335.644531 468.40625 336.921875 467.542969 C 338.203125 466.679688 339.503906 465.84375 340.824219 465.039062 C 342.144531 464.234375 343.480469 463.460938 344.835938 462.71875 C 346.191406 461.972656 347.558594 461.261719 348.949219 460.582031 C 350.335938 459.898438 351.734375 459.25 353.152344 458.632812 C 354.570312 458.015625 356 457.433594 357.441406 456.878906 C 358.886719 456.328125 360.339844 455.808594 361.808594 455.324219 C 363.273438 454.839844 364.75 454.386719 366.238281 453.96875 C 367.726562 453.550781 369.222656 453.167969 370.726562 452.816406 C 372.234375 452.464844 373.746094 452.152344 375.265625 451.871094 C 376.785156 451.589844 378.308594 451.34375 379.839844 451.132812 C 381.371094 450.921875 382.90625 450.742188 384.445312 450.601562 C 385.984375 450.460938 387.523438 450.355469 389.066406 450.285156 C 390.609375 450.210938 392.15625 450.175781 393.699219 450.175781 L 416.289062 450.175781 C 417.835938 450.175781 419.378906 450.210938 420.921875 450.285156 C 422.464844 450.355469 424.007812 450.460938 425.546875 450.601562 C 427.085938 450.742188 428.621094 450.921875 430.148438 451.132812 C 431.679688 451.34375 433.207031 451.589844 434.726562 451.871094 C 436.246094 452.152344 437.757812 452.464844 439.261719 452.816406 C 440.765625 453.167969 442.261719 453.550781 443.75 453.96875 C 445.238281 454.386719 446.714844 454.839844 448.183594 455.324219 C 449.648438 455.808594 451.105469 456.328125 452.546875 456.878906 C 453.992188 457.433594 455.421875 458.015625 456.835938 458.632812 C 458.253906 459.25 459.65625 459.898438 461.042969 460.582031 C 462.429688 461.261719 463.800781 461.972656 465.15625 462.71875 C 466.507812 463.460938 467.847656 464.234375 469.164062 465.039062 C 470.484375 465.84375 471.785156 466.679688 473.066406 467.542969 C 474.347656 468.40625 475.609375 469.296875 476.847656 470.21875 C 478.089844 471.140625 479.308594 472.089844 480.503906 473.066406 C 481.703125 474.042969 482.875 475.046875 484.027344 476.078125 C 485.179688 477.105469 486.308594 478.164062 487.410156 479.246094 C 488.511719 480.328125 489.589844 481.433594 490.644531 482.5625 C 491.695312 483.695312 492.722656 484.851562 493.722656 486.027344 C 494.722656 487.207031 495.695312 488.40625 496.640625 489.628906 C 497.589844 490.847656 498.503906 492.09375 499.394531 493.355469 C 500.28125 494.621094 501.140625 495.902344 501.972656 497.207031 C 502.804688 498.511719 503.601562 499.832031 504.371094 501.171875 C 505.144531 502.511719 505.882812 503.867188 506.589844 505.242188 C 507.296875 506.613281 507.976562 508.003906 508.621094 509.40625 C 509.265625 510.8125 509.878906 512.230469 510.457031 513.660156 C 511.039062 515.09375 511.585938 516.539062 512.097656 517.996094 C 512.613281 519.453125 513.09375 520.921875 513.542969 522.398438 C 513.988281 523.878906 514.402344 525.367188 514.78125 526.863281 C 515.160156 528.363281 515.507812 529.867188 515.816406 531.382812 C 516.128906 532.894531 516.402344 534.414062 516.644531 535.941406 C 516.886719 537.46875 517.09375 539 517.265625 540.535156 Z M 292.726562 540.535156 " fill-opacity="1" fill-rule="nonzero"/></g></svg>