<svg xmlns="http://www.w3.org/2000/svg" xmlns:xlink="http://www.w3.org/1999/xlink" width="1080" zoomAndPan="magnify" viewBox="0 0 810 809.999993" height="1080" preserveAspectRatio="xMidYMid meet" version="1.0"><defs><clipPath id="6438f81d8e"><path d="M 205 240 L 571 240 L 571 605.230469 L 205 605.230469 Z M 205 240 " clip-rule="nonzero"/></clipPath><clipPath id="e32e19c710"><path d="M 38.3125 67.304688 L 771.8125 67.304688 L 771.8125 757.304688 L 38.3125 757.304688 Z M 38.3125 67.304688 " clip-rule="nonzero"/></clipPath><clipPath id="fd2f9a5d4a"><path d="M 113.3125 67.304688 L 696.683594 67.304688 C 716.574219 67.304688 735.652344 75.207031 749.71875 89.269531 C 763.78125 103.335938 771.683594 122.414062 771.683594 142.304688 L 771.683594 682.101562 C 771.683594 701.996094 763.78125 721.070312 749.71875 735.136719 C 735.652344 749.203125 716.574219 757.101562 696.683594 757.101562 L 113.3125 757.101562 C 93.421875 757.101562 74.34375 749.203125 60.28125 735.136719 C 46.214844 721.070312 38.3125 701.996094 38.3125 682.101562 L 38.3125 142.304688 C 38.3125 122.414062 46.214844 103.335938 60.28125 89.269531 C 74.34375 75.207031 93.421875 67.304688 113.3125 67.304688 Z M 113.3125 67.304688 " clip-rule="nonzero"/></clipPath></defs><g clip-path="url(#6438f81d8e)"><path fill="#2e687a" d="M 289.890625 240.074219 C 243.464844 240.074219 205.667969 277.945312 205.667969 324.296875 L 205.667969 520.824219 C 205.667969 567.25 243.464844 605.046875 289.890625 605.046875 L 486.417969 605.046875 C 532.84375 605.046875 570.640625 567.25 570.640625 520.824219 L 570.640625 436.597656 C 570.640625 428.847656 564.351562 422.5625 556.605469 422.5625 C 548.855469 422.5625 542.566406 428.847656 542.566406 436.597656 L 542.566406 520.824219 C 542.566406 552.1875 517.78125 576.972656 486.417969 576.972656 L 289.890625 576.972656 C 258.601562 576.972656 233.742188 552.1875 233.742188 520.824219 L 233.742188 324.296875 C 233.742188 293.007812 258.601562 268.148438 289.890625 268.148438 L 374.117188 268.148438 C 381.867188 268.148438 388.152344 261.859375 388.152344 254.109375 C 388.152344 246.363281 381.867188 240.074219 374.117188 240.074219 Z M 289.890625 240.074219 " fill-opacity="1" fill-rule="nonzero"/></g><path fill="#2e687a" d="M 490.949219 230.421875 L 328.054688 393.316406 C 325.863281 395.507812 324.472656 398.359375 324.109375 401.359375 L 313.433594 479.734375 C 312.191406 488.800781 319.792969 496.550781 328.933594 495.597656 L 408.992188 486.679688 C 412.207031 486.3125 415.132812 484.925781 417.398438 482.660156 L 580.292969 319.839844 C 604.855469 295.199219 604.855469 255.0625 580.292969 230.421875 C 556.164062 205.273438 514.5625 207.539062 490.949219 230.421875 Z M 560.40625 250.308594 C 574.296875 264.199219 574.296875 285.988281 560.40625 299.953125 L 545.492188 314.867188 L 495.921875 265.222656 L 510.761719 250.308594 C 527.066406 234.003906 547.171875 237.078125 560.40625 250.308594 Z M 476.035156 285.039062 L 525.675781 334.679688 L 401.023438 459.335938 L 343.703125 465.695312 L 351.234375 409.839844 Z M 476.035156 285.039062 " fill-opacity="1" fill-rule="nonzero"/><g clip-path="url(#e32e19c710)"><g clip-path="url(#fd2f9a5d4a)"><path stroke-linecap="butt" transform="matrix(0.75, 0, 0, 0.75, 38.31292, 67.30457)" fill="none" stroke-linejoin="miter" d="M 99.999445 0.000156381 L 877.827609 0.000156381 C 904.348444 0.000156381 929.785945 10.536615 948.541154 29.286616 C 967.291155 48.041825 977.827614 73.479327 977.827614 100.000161 L 977.827614 819.729364 C 977.827614 846.255407 967.291155 871.6877 948.541154 890.44291 C 929.785945 909.198119 904.348444 919.729369 877.827609 919.729369 L 99.999445 919.729369 C 73.47861 919.729369 48.041109 909.198119 29.291108 890.44291 C 10.535899 871.6877 -0.000560283 846.255407 -0.000560283 819.729364 L -0.000560283 100.000161 C -0.000560283 73.479327 10.535899 48.041825 29.291108 29.286616 C 48.041109 10.536615 73.47861 0.000156381 99.999445 0.000156381 Z M 99.999445 0.000156381 " stroke="#2ef7bf" stroke-width="28" stroke-opacity="1" stroke-miterlimit="4"/></g></g></svg>