<svg xmlns="http://www.w3.org/2000/svg" xmlns:xlink="http://www.w3.org/1999/xlink" width="1080" zoomAndPan="magnify" viewBox="0 0 810 809.999993" height="1080" preserveAspectRatio="xMidYMid meet" version="1.0"><defs><clipPath id="a5d34eea57"><path d="M 244.785156 205 L 565.035156 205 L 565.035156 605 L 244.785156 605 Z M 244.785156 205 " clip-rule="nonzero"/></clipPath><clipPath id="9f442bea85"><path d="M 38.3125 67.304688 L 771.8125 67.304688 L 771.8125 757.304688 L 38.3125 757.304688 Z M 38.3125 67.304688 " clip-rule="nonzero"/></clipPath><clipPath id="09c79f1287"><path d="M 113.3125 67.304688 L 696.683594 67.304688 C 716.574219 67.304688 735.652344 75.207031 749.71875 89.269531 C 763.78125 103.335938 771.683594 122.414062 771.683594 142.304688 L 771.683594 682.101562 C 771.683594 701.996094 763.78125 721.070312 749.71875 735.136719 C 735.652344 749.203125 716.574219 757.101562 696.683594 757.101562 L 113.3125 757.101562 C 93.421875 757.101562 74.34375 749.203125 60.28125 735.136719 C 46.214844 721.070312 38.3125 701.996094 38.3125 682.101562 L 38.3125 142.304688 C 38.3125 122.414062 46.214844 103.335938 60.28125 89.269531 C 74.34375 75.207031 93.421875 67.304688 113.3125 67.304688 Z M 113.3125 67.304688 " clip-rule="nonzero"/></clipPath></defs><g clip-path="url(#a5d34eea57)"><path fill="#2e687a" d="M 466.371094 205.097656 L 298.519531 205.097656 C 268.855469 205.097656 244.71875 229.234375 244.71875 258.898438 L 244.71875 551.101562 C 244.71875 580.765625 268.855469 604.902344 298.519531 604.902344 L 511.484375 604.902344 C 541.144531 604.902344 565.28125 580.769531 565.28125 551.101562 L 565.28125 315.648438 Z M 474.210938 256.390625 L 519.398438 306.890625 L 474.210938 306.890625 Z M 511.480469 576.546875 L 298.519531 576.546875 C 284.488281 576.546875 273.074219 565.132812 273.074219 551.101562 L 273.074219 258.898438 C 273.074219 244.867188 284.488281 233.453125 298.519531 233.453125 L 445.855469 233.453125 L 445.855469 335.242188 L 536.925781 335.242188 L 536.925781 551.101562 C 536.921875 565.132812 525.507812 576.546875 511.480469 576.546875 Z M 511.480469 576.546875 " fill-opacity="1" fill-rule="nonzero"/></g><path fill="#2e687a" d="M 303.511719 491.726562 L 506.480469 491.726562 L 506.480469 520.082031 L 303.511719 520.082031 Z M 303.511719 491.726562 " fill-opacity="1" fill-rule="nonzero"/><path fill="#2e687a" d="M 303.511719 430.109375 L 506.480469 430.109375 L 506.480469 458.464844 L 303.511719 458.464844 Z M 303.511719 430.109375 " fill-opacity="1" fill-rule="nonzero"/><path fill="#2e687a" d="M 303.511719 368.5 L 506.480469 368.5 L 506.480469 396.855469 L 303.511719 396.855469 Z M 303.511719 368.5 " fill-opacity="1" fill-rule="nonzero"/><g clip-path="url(#9f442bea85)"><g clip-path="url(#09c79f1287)"><path stroke-linecap="butt" transform="matrix(0.75, 0, 0, 0.75, 38.31292, 67.304527)" fill="none" stroke-linejoin="miter" d="M 99.999445 0.000213981 L 877.827609 0.000213981 C 904.348444 0.000213981 929.785945 10.536673 948.541154 29.286674 C 967.291155 48.041883 977.827614 73.479384 977.827614 100.000219 L 977.827614 819.729422 C 977.827614 846.255465 967.291155 871.687758 948.541154 890.442967 C 929.785945 909.198176 904.348444 919.729427 877.827609 919.729427 L 99.999445 919.729427 C 73.47861 919.729427 48.041109 909.198176 29.291108 890.442967 C 10.535899 871.687758 -0.000560283 846.255465 -0.000560283 819.729422 L -0.000560283 100.000219 C -0.000560283 73.479384 10.535899 48.041883 29.291108 29.286674 C 48.041109 10.536673 73.47861 0.000213981 99.999445 0.000213981 Z M 99.999445 0.000213981 " stroke="#2ef7bf" stroke-width="28" stroke-opacity="1" stroke-miterlimit="4"/></g></g></svg>