<svg xmlns="http://www.w3.org/2000/svg" xmlns:xlink="http://www.w3.org/1999/xlink" width="1080" zoomAndPan="magnify" viewBox="0 0 810 809.999993" height="1080" preserveAspectRatio="xMidYMid meet" version="1.0"><defs><clipPath id="281f6fa5da"><path d="M 204.730469 204.730469 L 605.230469 204.730469 L 605.230469 605.230469 L 204.730469 605.230469 Z M 204.730469 204.730469 " clip-rule="nonzero"/></clipPath><clipPath id="a0dbeae72d"><path d="M 38.3125 67.304688 L 771.8125 67.304688 L 771.8125 757.304688 L 38.3125 757.304688 Z M 38.3125 67.304688 " clip-rule="nonzero"/></clipPath><clipPath id="0a986bbd80"><path d="M 113.3125 67.304688 L 696.683594 67.304688 C 716.574219 67.304688 735.652344 75.207031 749.71875 89.269531 C 763.78125 103.335938 771.683594 122.414062 771.683594 142.304688 L 771.683594 682.101562 C 771.683594 701.996094 763.78125 721.070312 749.71875 735.136719 C 735.652344 749.203125 716.574219 757.101562 696.683594 757.101562 L 113.3125 757.101562 C 93.421875 757.101562 74.34375 749.203125 60.28125 735.136719 C 46.214844 721.070312 38.3125 701.996094 38.3125 682.101562 L 38.3125 142.304688 C 38.3125 122.414062 46.214844 103.335938 60.28125 89.269531 C 74.34375 75.207031 93.421875 67.304688 113.3125 67.304688 Z M 113.3125 67.304688 " clip-rule="nonzero"/></clipPath></defs><g clip-path="url(#281f6fa5da)"><path fill="#2e687a" d="M 304.867188 204.730469 C 296.96875 204.730469 290.5625 211.140625 290.5625 219.035156 L 290.5625 233.339844 L 261.949219 233.339844 C 230.511719 233.339844 204.730469 259.121094 204.730469 290.5625 L 204.730469 548.046875 C 204.730469 579.488281 230.511719 605.265625 261.949219 605.265625 L 548.046875 605.265625 C 579.488281 605.265625 605.265625 579.488281 605.265625 548.046875 L 605.265625 290.5625 C 605.265625 259.121094 579.488281 233.339844 548.046875 233.339844 L 519.4375 233.339844 L 519.4375 219.035156 C 519.4375 211.140625 513.03125 204.730469 505.132812 204.730469 C 497.234375 204.730469 490.828125 211.140625 490.828125 219.035156 L 490.828125 233.339844 L 419.304688 233.339844 L 419.304688 219.035156 C 419.304688 211.140625 412.898438 204.730469 405 204.730469 C 397.101562 204.730469 390.695312 211.140625 390.695312 219.035156 L 390.695312 233.339844 L 319.171875 233.339844 L 319.171875 219.035156 C 319.171875 211.140625 312.761719 204.730469 304.867188 204.730469 Z M 261.949219 261.949219 L 290.5625 261.949219 L 290.5625 276.253906 C 290.5625 284.152344 296.96875 290.5625 304.867188 290.5625 C 312.761719 290.5625 319.171875 284.152344 319.171875 276.253906 L 319.171875 261.949219 L 390.695312 261.949219 L 390.695312 276.253906 C 390.695312 284.152344 397.101562 290.5625 405 290.5625 C 412.898438 290.5625 419.304688 284.152344 419.304688 276.253906 L 419.304688 261.949219 L 490.828125 261.949219 L 490.828125 276.253906 C 490.828125 284.152344 497.234375 290.5625 505.132812 290.5625 C 513.03125 290.5625 519.4375 284.152344 519.4375 276.253906 L 519.4375 261.949219 L 548.046875 261.949219 C 564.140625 261.949219 576.65625 274.46875 576.65625 290.5625 L 576.65625 319.171875 L 233.339844 319.171875 L 233.339844 290.5625 C 233.339844 274.46875 245.859375 261.949219 261.949219 261.949219 Z M 233.339844 347.78125 L 576.65625 347.78125 L 576.65625 548.046875 C 576.65625 564.140625 564.140625 576.65625 548.046875 576.65625 L 261.949219 576.65625 C 245.859375 576.65625 233.339844 564.140625 233.339844 548.046875 Z M 233.339844 347.78125 " fill-opacity="1" fill-rule="nonzero"/></g><path fill="#2e687a" d="M 465.644531 395.6875 L 389.875 484.121094 L 343.609375 437.78125 C 338.019531 432.191406 328.929688 432.191406 323.34375 437.78125 C 317.753906 443.367188 317.753906 452.457031 323.34375 458.046875 L 380.5625 515.265625 C 386.449219 521.152344 396.132812 520.777344 401.570312 514.445312 L 487.402344 414.3125 C 492.542969 408.277344 491.796875 399.261719 485.835938 394.121094 C 479.503906 389.054688 471.605469 389.429688 465.644531 395.6875 Z M 465.644531 395.6875 " fill-opacity="1" fill-rule="nonzero"/><g clip-path="url(#a0dbeae72d)"><g clip-path="url(#0a986bbd80)"><path stroke-linecap="butt" transform="matrix(0.75, 0, 0, 0.75, 38.31292, 67.304585)" fill="none" stroke-linejoin="miter" d="M 99.999445 0.000137181 L 877.827609 0.000137181 C 904.348444 0.000137181 929.785945 10.536596 948.541154 29.286597 C 967.291155 48.041806 977.827614 73.479308 977.827614 100.000142 L 977.827614 819.729345 C 977.827614 846.255388 967.291155 871.687681 948.541154 890.44289 C 929.785945 909.1981 904.348444 919.72935 877.827609 919.72935 L 99.999445 919.72935 C 73.47861 919.72935 48.041109 909.1981 29.291108 890.44289 C 10.535899 871.687681 -0.000560283 846.255388 -0.000560283 819.729345 L -0.000560283 100.000142 C -0.000560283 73.479308 10.535899 48.041806 29.291108 29.286597 C 48.041109 10.536596 73.47861 0.000137181 99.999445 0.000137181 Z M 99.999445 0.000137181 " stroke="#2ef7bf" stroke-width="28" stroke-opacity="1" stroke-miterlimit="4"/></g></g></svg>