<svg xmlns="http://www.w3.org/2000/svg" xmlns:xlink="http://www.w3.org/1999/xlink" width="1080" zoomAndPan="magnify" viewBox="0 0 810 809.999993" height="1080" preserveAspectRatio="xMidYMid meet" version="1.0"><defs><clipPath id="aac76cf478"><path d="M 167.992188 179.136719 L 386.757812 179.136719 L 386.757812 397.902344 L 167.992188 397.902344 Z M 167.992188 179.136719 " clip-rule="nonzero"/></clipPath><clipPath id="cfdb79e2fc"><path d="M 277.375 179.136719 C 216.964844 179.136719 167.992188 228.109375 167.992188 288.519531 C 167.992188 348.929688 216.964844 397.902344 277.375 397.902344 C 337.785156 397.902344 386.757812 348.929688 386.757812 288.519531 C 386.757812 228.109375 337.785156 179.136719 277.375 179.136719 Z M 277.375 179.136719 " clip-rule="nonzero"/></clipPath><clipPath id="7ce0c82145"><path d="M 167.992188 412.085938 L 386.757812 412.085938 L 386.757812 630.851562 L 167.992188 630.851562 Z M 167.992188 412.085938 " clip-rule="nonzero"/></clipPath><clipPath id="1df00d7d04"><path d="M 277.375 412.085938 C 216.964844 412.085938 167.992188 461.058594 167.992188 521.46875 C 167.992188 581.878906 216.964844 630.851562 277.375 630.851562 C 337.785156 630.851562 386.757812 581.878906 386.757812 521.46875 C 386.757812 461.058594 337.785156 412.085938 277.375 412.085938 Z M 277.375 412.085938 " clip-rule="nonzero"/></clipPath><clipPath id="b1fe468b19"><path d="M 423.230469 179.136719 L 641.996094 179.136719 L 641.996094 397.902344 L 423.230469 397.902344 Z M 423.230469 179.136719 " clip-rule="nonzero"/></clipPath><clipPath id="60a20fe2c2"><path d="M 532.613281 179.136719 C 472.203125 179.136719 423.230469 228.109375 423.230469 288.519531 C 423.230469 348.929688 472.203125 397.902344 532.613281 397.902344 C 593.023438 397.902344 641.996094 348.929688 641.996094 288.519531 C 641.996094 228.109375 593.023438 179.136719 532.613281 179.136719 Z M 532.613281 179.136719 " clip-rule="nonzero"/></clipPath><clipPath id="9f37eb2e67"><path d="M 423.230469 412.085938 L 641.996094 412.085938 L 641.996094 630.851562 L 423.230469 630.851562 Z M 423.230469 412.085938 " clip-rule="nonzero"/></clipPath><clipPath id="3dd508bc1e"><path d="M 532.613281 412.085938 C 472.203125 412.085938 423.230469 461.058594 423.230469 521.46875 C 423.230469 581.878906 472.203125 630.851562 532.613281 630.851562 C 593.023438 630.851562 641.996094 581.878906 641.996094 521.46875 C 641.996094 461.058594 593.023438 412.085938 532.613281 412.085938 Z M 532.613281 412.085938 " clip-rule="nonzero"/></clipPath><clipPath id="5767816627"><path d="M 38.3125 67.304688 L 771.8125 67.304688 L 771.8125 757.304688 L 38.3125 757.304688 Z M 38.3125 67.304688 " clip-rule="nonzero"/></clipPath><clipPath id="8a95c4cbed"><path d="M 113.3125 67.304688 L 696.683594 67.304688 C 716.574219 67.304688 735.652344 75.207031 749.71875 89.273438 C 763.78125 103.335938 771.683594 122.414062 771.683594 142.304688 L 771.683594 682.105469 C 771.683594 701.996094 763.78125 721.070312 749.71875 735.136719 C 735.652344 749.203125 716.574219 757.101562 696.683594 757.101562 L 113.3125 757.101562 C 93.421875 757.101562 74.34375 749.203125 60.28125 735.136719 C 46.214844 721.070312 38.3125 701.996094 38.3125 682.105469 L 38.3125 142.304688 C 38.3125 122.414062 46.214844 103.335938 60.28125 89.273438 C 74.34375 75.207031 93.421875 67.304688 113.3125 67.304688 Z M 113.3125 67.304688 " clip-rule="nonzero"/></clipPath></defs><g clip-path="url(#aac76cf478)"><g clip-path="url(#cfdb79e2fc)"><path stroke-linecap="butt" transform="matrix(0.75, 0, 0, 0.75, 167.991981, 179.138214)" fill="none" stroke-linejoin="miter" d="M 145.844032 -0.00199392 C 65.297153 -0.00199392 0.000274735 65.294884 0.000274735 145.841763 C 0.000274735 226.388642 65.297153 291.685521 145.844032 291.685521 C 226.390911 291.685521 291.687789 226.388642 291.687789 145.841763 C 291.687789 65.294884 226.390911 -0.00199392 145.844032 -0.00199392 Z M 145.844032 -0.00199392 " stroke="#2e687a" stroke-width="82" stroke-opacity="1" stroke-miterlimit="4"/></g></g><g clip-path="url(#7ce0c82145)"><g clip-path="url(#1df00d7d04)"><path stroke-linecap="butt" transform="matrix(0.75, 0, 0, 0.75, 167.991981, 412.085159)" fill="none" stroke-linejoin="miter" d="M 145.844032 0.00103764 C 65.297153 0.00103764 0.000274735 65.297916 0.000274735 145.844795 C 0.000274735 226.391674 65.297153 291.688552 145.844032 291.688552 C 226.390911 291.688552 291.687789 226.391674 291.687789 145.844795 C 291.687789 65.297916 226.390911 0.00103764 145.844032 0.00103764 Z M 145.844032 0.00103764 " stroke="#2e687a" stroke-width="82" stroke-opacity="1" stroke-miterlimit="4"/></g></g><g clip-path="url(#b1fe468b19)"><g clip-path="url(#60a20fe2c2)"><path stroke-linecap="butt" transform="matrix(0.75, 0, 0, 0.75, 423.231366, 179.138214)" fill="none" stroke-linejoin="miter" d="M 145.842561 -0.00199392 C 65.295682 -0.00199392 -0.00119661 65.294884 -0.00119661 145.841763 C -0.00119661 226.388642 65.295682 291.685521 145.842561 291.685521 C 226.38944 291.685521 291.686318 226.388642 291.686318 145.841763 C 291.686318 65.294884 226.38944 -0.00199392 145.842561 -0.00199392 Z M 145.842561 -0.00199392 " stroke="#2e687a" stroke-width="82" stroke-opacity="1" stroke-miterlimit="4"/></g></g><g clip-path="url(#9f37eb2e67)"><g clip-path="url(#3dd508bc1e)"><path stroke-linecap="butt" transform="matrix(0.75, 0, 0, 0.75, 423.231366, 412.085159)" fill="none" stroke-linejoin="miter" d="M 145.842561 0.00103764 C 65.295682 0.00103764 -0.00119661 65.297916 -0.00119661 145.844795 C -0.00119661 226.391674 65.295682 291.688552 145.842561 291.688552 C 226.38944 291.688552 291.686318 226.391674 291.686318 145.844795 C 291.686318 65.297916 226.38944 0.00103764 145.842561 0.00103764 Z M 145.842561 0.00103764 " stroke="#2e687a" stroke-width="82" stroke-opacity="1" stroke-miterlimit="4"/></g></g><g clip-path="url(#5767816627)"><g clip-path="url(#8a95c4cbed)"><path stroke-linecap="butt" transform="matrix(0.75, 0, 0, 0.75, 38.31292, 67.304702)" fill="none" stroke-linejoin="miter" d="M 99.999445 -0.0000196187 L 877.827609 -0.0000196187 C 904.348444 -0.0000196187 929.785945 10.536439 948.541154 29.291649 C 967.291155 48.041649 977.827614 73.479151 977.827614 99.999985 L 977.827614 819.734397 C 977.827614 846.255231 967.291155 871.687524 948.541154 890.442734 C 929.785945 909.197943 904.348444 919.729193 877.827609 919.729193 L 99.999445 919.729193 C 73.47861 919.729193 48.041109 909.197943 29.291108 890.442734 C 10.535899 871.687524 -0.000560283 846.255231 -0.000560283 819.734397 L -0.000560283 99.999985 C -0.000560283 73.479151 10.535899 48.041649 29.291108 29.291649 C 48.041109 10.536439 73.47861 -0.0000196187 99.999445 -0.0000196187 Z M 99.999445 -0.0000196187 " stroke="#2ef7bf" stroke-width="28" stroke-opacity="1" stroke-miterlimit="4"/></g></g></svg>